<mxfile host="Electron" modified="2025-09-17T06:34:42.053Z" agent="Mozilla/5.0 (Windows NT 10.0; Win64; x64) AppleWebKit/537.36 (KHTML, like Gecko) draw.io/23.0.2 Chrome/120.0.6099.109 Electron/28.1.0 Safari/537.36" etag="bOJPcu1O8_a01lwzqG4d" version="23.0.2" type="device">
  <diagram name="Page-1" id="NK0C5NOYL1MXsi7k6KsQ">
    <mxGraphModel dx="1727" dy="996" grid="0" gridSize="10" guides="1" tooltips="1" connect="1" arrows="1" fold="1" page="1" pageScale="1" pageWidth="1169" pageHeight="827" math="0" shadow="0">
      <root>
        <mxCell id="0" />
        <mxCell id="1" parent="0" />
        <mxCell id="i9wXU3DIwBck66XUtcdW-4" value="" style="shape=image;verticalLabelPosition=bottom;labelBackgroundColor=default;verticalAlign=top;aspect=fixed;imageAspect=0;image=data:image/png,iVBORw0KGgoAAAANSUhEUgAAAN8AAADhCAYAAABIiWDxAAAbX0lEQVR4Ae2d3+svx1nH8y/kInfihV70KheiWMRe9KJXkUKkWKtEDYbS5CI0KYGaElqkafFwQmwoaVKPtlp7yumxtKGkScqBKpxiKQGLBKEWKd5JclEoWpXefPS1yfPNfPY7OzO7OzM7s/seWHY/+9kf8+N5zTPzzDOzd5wUlAPKgU1y4I5N3qqXKgeUAyfBJyFQDmyUA4Jvo4yPvfa/fvo/p3//0eunf/3n/xi2f/rHfzt995V/Od362g9Or9x87fTCF793+rvnvzvs+c15/uc6u4f7eY5Cmzkg+DYol//9758PYBlMX37me6crj7x0+ugHvn763Xf81el9v3jt9Du//JfDxm/bfv/uL55s+4Nf+evh2PZ23q5lb8/gefx+9LdvDu+59unbF7ACKPFRqJ8Dgq9Cnv/4h28Mwo7QP3zPjQEawDBg/vBX/+Z0/6+/uf3xb3zp9MBv/m32jefaO3ifvdviQbwMSuKrUD4HBF/mPEaL0PSjSfiJ+785aBwTcIQeCEoBthRai5NBSXzRlMT/xrPfP736Dz9S8zWznPA4wZchU9EU9MFoNprg0hxE07QGWiqgxJv4kw5rwtJspVKRZswgNIJveSaiDZ55/NYgoABnsKUKd4/XASPNVUvvsx//zqAVl+fise+U5ptR/gacGTCsGdkjSGvjjGYk/WhF8oOKiPxRSM8BwRfJK5pYGCJM0NivFdw93m/5QwuA/MKKqhDOAcHnyR/GxujDPfSerwxNLASr175bbdBNI9I0xYLKGKTGGj1Cpj7feab85PWfDbU2TSn6NgJu3ZAH+Uc+kp9oQ/JX4e0ckOY7nQaPkCcffHHou0jLrQPOp2lNG9I3JJ/xwFE4+FADBgLM5zSRsOT5BEfn8sJIPpPf5PvRDTSH1HwMggu6vFDNraRcCCmPI4ZDwUdzR9BtC90YUhfCozVHDwHfT974z8GhWM3LtsBzQTQIr3z45RPldYSwa/jws2TGAB19jc+1C54LIeVEeVFue59tsVv4mK5jnvtu4eq4Dwit7CjHvYbdwUeTBW98mpgap+sDtKkKkfKjHCnPPTZFdwUfXikM6NJ/mCpQne8PSOsPUr57CruAj1rRZoFL2/UHV0qFSLnSFKWc9+Ip0z18rF0ibbdP4HxQmhak3HsP3cKHJYx1T9S3Ow54BqP1BRmW6Nki2iV8TPPBJK3hg+OBZwCyp/yZwtTrzPru4KO5IW13bOhcAE0LMnWpt9AVfCxbIPAEngsfxwYg8tFT6AI+2vX4ZGLtGme8fgtGkwHkAznpZfJu8/BhVsbCpf6dIDPIQnuTlR6GI5qGDy93hhFoVoQyXP8JTFcGkBfkpvVZEs3Ch2EFB1uBJ7BcsFKPkRvkp+XxwCbhw3JFxqVmtK4ToFMygIGuVbe05uBjRWSBJ5imYFpyHgBZ9r610BR8rHBFRi3JYN0jYEMyQB8Q+WopNAMfkyfJoFAG6j8BtkYGWgOwCfhuPnf7dO+dV09/9Gt/IfgKfB5sjcDu7d6WANwcvm9df3UA7767nzmxCUBpt9LAA2ALfcBN4cMM/Ft3/NkAncEnAAVfafh4PrYFjHtbhs3gY20OH3gGoTSgICwNIQBuOQ64CXxMAQmBJwAFXmnw7PkMa221aG91+Fjy4X2/8NTp997x55eamwadu5cGFIgGSom9uaJt4QtaFT5mJzzwzs8lg2cQCkABWAI8eyYA4rhfe1Z8Vfj+5P1fOr3/l55O0ngGnu0FoAA0WErsmQ3BdKSaoRp8X/7M35/uvevqIvAEoMArAdz4mcwHrDkhtwp8fAoqxcBikIX20oACcQxNzt81LaDF4aMju1bjjWEUgAIwJ3Dus+j/AWCNb8oXh2+JgWUMm++3ABSALjQ5jwGQPmBpA0xR+J7/05eHYQUfPDnOCUABmBM691ksSfjM47eK2l+KwcfAZa5+XghUASgAXWhyHtP8LPmVpCLwoa4ZSA9Bk/M/ASgAc0Jnz7oYgC/0sc4i8H3yg19dPJ63FEoBKAANmpx7+n58nKVEyA4fapq5eUshWnOfABSAOcGzZzEFqcQ6MFnhq93c9IEqAAWgQZNrX6r5mRW+px79RvXmpgAUbLkgCz2H5idfyM0ZssFXy7rpg813ThpQUIZgWvJfbutnNvgAIHWakA+WEucEoABcAtnUPTQ/8f/MNfieBb5hrc2KQwtzQBWAAnAKpiXngY+V9nKE1fDxRZgag+lzgBtfKwAF4BLQpu5h9juTwteG1fA9/dgLTRhZxsCNfwtAATgF09zzTLzlk9Rrwyr48PxuXeu5EApAATgXtKnrMb6s/QrSKviYmd6akcWFzXcsAAXgFFBzzjP08PA9N1Ypv8XwQf1Wniw+qOacE4ACcA5oU9fi+cJE8aVhMXw9aj0XUAEoAKegSj2/Vvstgq9nrScABV0qXCnXrdF+i+ArqfXoQ4Y2F54cx6U0oM2Gpnb0bSkFG7om9nzfO0ueIz6h+JZ8d61n+9JHupf2/WbDx2rTpfp6QAfYU9tH3vuFIsMauQGkQB56z1cGX0D8AX1bTFh9BW3nuJdpLr7nbnWO9E6lifNbxSvne0mjlYG7x/K5ZNXr2fCVdJ4G6lh46N2fL2JhzQkgNTGFPhVwTKC54hbgnGPupRJsKfDhSca/fOkgvnsIU2mkvJ988MXZSZwFH6P6Jcf1gC/mNzeshlZovmAuAGPwkY9r4Vs7xjRbUiI3sN5lCL5YuUYe38TfoTQOXi+v/2xWPGfBx8K3S1ecTumfpcBH6sbf9Et5duo1OQAUfOdGHSqavcNHxTP3s9PJ8JF5pddlSYUPAJ+473qR5ieQrgVQ8B0PPvq1VDJ0KVJDMnx8xyz34rdjbTQHPhJZMj5rABR8x4OPvi4zHl65+Voqe6dk+LA0lnYlmwMfKSy9XsxSAI8I35QxwoRyD83OUBpJp1l7U+lLgq+WA/Vc+Ehk6ZXSlgC4NXxY3vjiTs0tNtTA/zk3FrUNfVNv6l2MyaVsvrwLpdGsvHMcrpPgK21osebnEvioUUsagZb0AbeGjzFADADUxDU3E0DfPnc8YtZF3kc55H6vL23uOfI99UtHSfAZHKX3S+BD+9VYP2aOBmwBPuLgCsXejtEwIc1HegGvdrp5J1o5pZkdhQ/BBorS4PH8EHwxK9JnP/ZicWtsKoCC79zgUgKAVuEjrRheUpaZj8KHUJdu1hnYIfgYVI5N3+A5pY1CKQAKvmPDR/mneLxE4aul9WKajyYG14QCLlclPXCskogBKPiODR/ajz5prOkZhG9ocq78lLMJbMo+pPlICGAx3hgKGIdKOwOQlhCAgk/wpTQ9g/Dxfb1aTU4EOgYfcWFgPbZyVKkPco4rkCkABZ/gw+oZ+75fED6ErXQfyhXoGHxoNADEtSwUGJes1Vz2ASj4BB9WT7RfKEzCV1OADcAYfOZOxnWx5icL+dr19vxS+zGAgk/w0e/D1zM0+2QSPmYO1Og7uUBE4XOGPLg2NM5DjVPDJc7i7wIo+AQf8DHehxKYCpPwlZw1YAI73s+Bj+YwcIUCfUOeOX5Pqd8GoOATfMBH0zO0xIQXPiyLNYXWYJgDH/fQrAzVLIA5zMaoDKDgE3zAx4YzwJSDiBe+rVYnmwsfADL8QP80FNDiNa22gk/wGXwYXaacQ7zw8Qnc2v29QZMFlpGY0sY0Pz/0rudD7A01Ty3jC+kgTiwCNRVKLyOBYzUVgAnAHvctu5e5+U2/78az3/eKghc+punUHGJAYJfCx31UFNc+9W1vAu1k6bl/lgb2gk+azwAMtYK88G0B3hr4uJfmZ8isC4QlV14TfOWBM4Fm34vmw+hCXH3hEnyY77cwtqyFjwqDLeRPx381+n7SfOVB7AU+KgrG+3xLPV6Cb2ieVfTndDXGEoOLez9god1CocbcP8En+FwtjdHF5xRyCb5as9ZdaOx4LXw8h+bnlHXJoMRntaRBSfAJPhc+/Dx9n5K+BN9WxhbAyQEfz0EDTo2tGIBcByTsc2+CT/C58NHvY02YcbgEX25BnPO8nPBRiYRCybl/gk/wjeFD+43DGXyl18KMgZgLPt7Ds3ztbDcDSs39S4EPg4FbQHOOYw67Guc7DXmLxpmTryWv9RmIzuBDGyC0MUhK/Z8TPgMwNvevxIdXUuAjreYLOrfQBV8/Qw1WtpQZxj43nMG3paXTYJkaKpjycAlVBEAQc74uMXUqFT7ivgRAwdcffD6L5xl8W0wjcuHJrfkGoO+6esJdLhT4P6f72Rz4lgAo+PqDz+dmdgZf7WUjXPAGUBb4do6f4fud4nydc+7fXPiI8xwNGIOPaSws4EM/o/S2Vb/K14dyK1iae1vFzZqa7h6Dy5VHXnKjeP6thi2HGUrCBwz07UIh59y/JfDNATAGH15KNTYMdJjQtxDy3uDz+XieaT5mByA4Pu1R41yJZqfFO8X5Otfcv6XwpQIYgy9UyeT+T/ClDatQQY3XdDmDr6TXh0EQ2peEj/emOF+j/df6f66BLwVAwddfn48mKF0BN5zBh3CG4Cj9X2n4TKu7GTA+zjHWuRa+GICCr1/4XM+rC/hy9nmWQloaPuKFVmMJ/FDAN5S4LE1HDvhCAAq+PuGjn+quunABX4nxrrnCWwM+4pTifL1m7l8u+KYAFHx9wjcutwv4tvZuQdBqwce7UpyvgYiN6+dsOeHjveNhiHEhjrU4i0rhRV96Y3mElA9Guib3XMe9WTtJ97jcLuCr/V0GnzDXhi/mfM3M+CX94NzwjQEcF+IYPiyQWNYY2C29bTHMgCD3CB9l4k53Oyx8CDSwx5yvWRtmrhW4BHwugDH45FjdnmM1FQbwud/tu4BvMDJsNIPdtGBNzXfxzgIfXikFnwEo+PrVfG5lfwHf1k7VCNYW8MVAoUk31xgVe+ZayzJNrtBiUdJ87Wq+V26+dtFLuIAPIuc2r0x75NpvAd8AfYLz9c3nbic7X5eGDydwwdfmN9lDBiX6366Tv+B7y5KJYcUdg7monpyDVOdrwZfmchUS1Nh/vRpc3M8bXMBHs/Oomg/tBzBR5+vEZRUFn+DzVR6Tmu+ofT63yUzlw9ISocCcR5rH7n3jY8En+HzwYe309vmOau0cg0Pz07fAqQsk32EAsPG99lvwCb4p+LzWzqMNshso4z3g8E33UMA5NjT4LvgE3xR83nE+wfe2CxnNz5jz9dBMn2h+Cj7BNwWf18PlaL6dY403/o1mczPKpwmn5v4JPsHng2/sHHFh7Zw7kDwW1hy/txrnm4p7zPmaFdV8FuKt4WNIZOyM7ROGns/1ONQwCd9ar4spAZ5zvkX4Ys7Xg6Fq1PxsAT7isGcAe4SPOLtjyReaj2ZVyIgwB6Kl17YGH+kgTq6Fytf8pH/oLj3RCnzEf68A9ggfy0i469KewedrQi0Facl9LcI3AJjgfA1wbFzfEnzEZ48A9gqfW3mfwbfn1cuWVAZ2TwwmMtSd+xe7fm0TP+bb6XOD2xuAvcEXXb2M/o3V3iZ4Nfetaj7yAIF3nWLdGsyObe5fi/CRhj0B2Bt80XU797pida4KhD6x22E26Nw9A/T0//CCmQpbaD7Lg70A2Bt80RWrqdm37Pe1rPkQXjRazPma8VIgpek3FbaEby8asDf4cKpmzRs3nPX5tnaubh0+BJfKKeZ8TQuCa6fC1vDtAcDe4MOpemw1P4Nvay+XHuBDcNFsIedr+5xZy/D1DmBv8DHAPvaYOoMvx2rNFOrSrRf4zCg1BRfnmXrkjum417ag+ayMeu0D9gafL75n8CEgViipewTRttR7pq7rBT7iT/Mz5nztAucetwQfaekRQJ8wu3mM69xWyxqO3faIR/Sb7EQ+dbgB4IAFAwSrOz9x3/XBHO96ekxBNnW+J/hIA83PcVPCFYCp49bg6xHA3uBjLdVxuKT5MCbEAKLWx5Q+NrsjVIC49CuvvcGH0JJXU83LcWbb7xbh6w3AnuBD67F6+Dhcgi9m8UTYACwUxr6OFGzK1it8MefrcV6Vho/WCBUgleTcjfLFMrdkw5w+bnKV+t0TfD5LJzJxCT6+aAoEU7BQqCk1fUx7+p7fI3ykg3i7M5THsI1/l4YPkzYGn6Ub64ws3fDkKAWc+9ye4MPS6bOOX4IPQTFr3hgQzse0ngkarlZzAewVPgMQqFJCafhS4lDqGrRfDUNHL/CRF8TVF7zwTRldgAmoUgK1Lk2eMcCh3z3DR8UUcilz82yv8NEiEnzns/h9Pp0mC174ptzMgC/VvM4Kz0fSfIP2S3C+JuMF37mAus3J1ONeNJ/PrSwIH9Nj0EJjLUXtHlvZyx68ZHpSz5rP8irF+VrwHQc+n2eLMeLVfPzpg89qd5qUoRCzmJqgjvd7gI8KKuZ8vVf4kImqzc5AHxsNWqPvGdPUaGj3O+wuN5PwMWiOII0BGQAMWPd8a5r4nuE7Rx+R+1nGcLxxfm4f0veOGueIJ87V4zTYbyqnNWnhXipAe14re8qIPk4Nocd8Tz5Opb0F+MiHh++54fJ2djwJX8xggpbCwIBZmwxgP3i5eJqrcwSeoYypbc5ztr6W/u5UOtaAZ+niGVPPL3meZtTUBhA1wDNtw/t8cakdD4vPeE8rwP0wyhl5vnE+uyBlKUE0owkB+ylNaQKjfZqzQev51KMv6BiMGr+pGEKfcpvUfEDYuhAoftvBLADDRiNaAGjgUAjCt/WyEoJrO7hS8l4ATgOIP+czj98KsXfZvcy9mr7clNUzpXB0Tdvw5CgfAegHEK0XczkMaj5AFHz7B2gthALwMoDjBXJdpWbHUfjU9BR8KXAKwLcBZLjlyQdfNMYm91H41PQUfCnwcY0AfBPAlCYnREbh4yINIQhAAfi2ZgsNU5iVM2XaXRJ8KbPbUwtH1+0f5CNrQKycz378O5NNTfePJPgYcMdhWODsH5xcZXxUAPHlDA2sz4aPG3wf38hVUHrOPqE+GoDmWucCFjpO0nw8YOlMBYG1T7BSy/VIAGJoYfmN1JAMHx3IHA7BqYWm6/YD7REAROvhyzk1fcgHZDJ83CzDy36AqF257R1ADC3XPn3bx9jkuVnwMQlUhhcBuBTcPQOIRwsr/80Js+DjwU8/9sLstVmWFpbu2x/oewQw1aNlDOZs+FLm+Qma/UGTs0z3BuCc4QUXwNnwcTMz2OX1IsDWALkXANF6vu8wuJBNHS+Cj0FE9f0E3xr4uHcPAKL1WLtmSVgEHy+S9hN8a+HrHUC0XmiBpBiQi+GbWtszR4HoGccCu1cNyLges36WhsXwSfsdC5DSFWJvAK7VevCzCj45XAvAnFD2BOBSC6erJVfBx4M07icAjwYgWu/Kh192OVp0vBo+fNlk+RSARwJwiTeLj87V8PFQVuWV07UAPAKArELt+8SzD67YuSzw8RIyXgPvAnDPAM5ZIiIGHv9ngw+Tq5qfgi8nfDyrJSMMRpbYWpwp0Nk12eDjgXwyeu4HMXMXlp63vwqgBQAxsnzi/m8aN1n2WeHThNv9CX4rldmWANpEWabU5QxZ4SNiw3ITKz8T1kqBKx5tVSZbAYgnC59Kzx2yw0cEP/nBr6r5eXdbgruXiqQ2gDQ3P/qBr+fmbnheEfjU/BR4JWGvBWCp5qaRXAQ+Hi7rpwDsHcDc1k2DzvbF4OMFfGRFg++CsBSEJTUgCyJdeeQl46TIvih8xPiBd35Og+/q/xVb7bwEgDQ36eulfG9hDZXF4WNFp3vvulos80vVqnpuPxo7J4CAR3Pzxz98Yw1XSfcWh49YMM1e3i/9CHOPFU8uAAHv1td+kATP2ouqwEckWXBXGlAAlgR7LYAs9576haG14HF/Nfh4Geu+yP1MALYIIH28pauQLQWxKnxE8kPvel4GGBlgitoA5mpA+nlYN0sbWMaQVocP/zi0n6YfSQO2oAEvBtJnLvU+BmnJ7+rwEUmtei3wSoJnz07RgMxKT/2Y5RLAQvdsAh8RkgVUABokJfchAAGvlmXTB+Fm8BEZEq4hCEFYEj6e7QOQIYUSMxV8kE2d2xQ+IvWt66+e7tUUpKIGiNLC3cPzXQCZIsS6Q1uHzeEjA8gIASgNWBpiAAS8uR+xLAVpE/CRuGEQXhpQGrDgMAwVPM7+rYRm4CNDbj53WxqwoPCV1iwtPx/wqOBbCk3BR8bQB5QRRk3QnCAjT1sbV3zQNwcfkZQVVPDlgg/wqNBbDE3CR0axEBMZJ08YgbgUROQn5zqbuQFuFj4SypwqZsILQAE4B0DkBbmpMSdvDZBNw0fC8AVlNrxmQwjAFABNTnKvsbkGsql7m4fPIs50JM0HFIAhANF2yEnt2Qkmo3P33cBHwq596tuyhGoowjsWSv8O+egpdAUfGYtDNhpQ/UBpQbQgcsAYXsuGlakKoTv4SAiLMtEP1LKExwbQyh956DF0CZ9lNK5CNDdC/QD9t09AKffPfuxFE4Uu913DR47TDKUGNCuXYNsnbFauQzPzrqtDuXdJnBPp7uEjLXwX/on7rssvdOfGGPp2WDMp7z2EXcBnBYFbmrTg/jQfrRqMbK26iZn8zd3vCj4ST63IJ8roE8gi2j+IaDvKcy/azgV0d/BZ4vhKEv0Es4hZn0H7PoCk3Kg86dPvNewWPiswZsmjBWWQ6QM6yonyYm7n3sPu4aMAabJgllZTtF0A0XKUz9OPvbDLJqavIjkEfJZw1gsdfETvlIdMK83vYejgzqunj7z3C83PQjA5yrU/FHyWaSySKgi31YIGHeWw1aK1Jg9b7Q8Jn2W2C6H6hHVgHIYN3tJ0R4XO5O/Q8FkmMOnyqUe/IcNMwUF6M6SQz61PcjW5KL0XfE4OMwGTFa4wc2vmxHpNSNOSvGRjuk8PE1wdcSh+KPg8WcxkTLxl+JwZg7xqks4D0bTcQ+/+/JCPvUxu9YhC0VOCL5K9NJGotbEOCsRpCK0vh7Yjv7AsK4RzQPCF8+fsX7xmrG9IsxSBQ9haMdvXjscA3P/PMGB8jnwhfxTSc0DwpefV2ZUIGvMJmdSLRjR3qNoA1Hyf9eFIL8ekX8CdicWsH4JvVnb5L6aJhce9TWvaC4wubKSJ9JFONSn9cjD3rOCbm2OR6zEuMH7F8uR44yPACG7rzVTiac1I02zEn3SQHhlNIgW/4G/BtyDT5t7CGiMs8MMwBgJNUxEYDUqarDX6jwYY73PfT3zQasSPeEqzzS3hZdcLvmX5tvounL2xpCLsaBccvwEAEDBgsA1wvqU1gQVoYtsAlYF955vGEJ5lgPEe3sd7ef8e58mtLpxKDxB8lTJ67muAAg0EIBg1gIWN8Ufb6H/ZMXu7huu5j/sF19ycr3e94KuX13qTcuAsBwTfWXboh3KgXg4Ivnp5rTcpB85y4P8AIorpqfoaljUAAAAASUVORK5CYII=;" vertex="1" parent="1">
          <mxGeometry x="287.99724137931025" y="217.0010344827586" width="223" height="225" as="geometry" />
        </mxCell>
        <mxCell id="i9wXU3DIwBck66XUtcdW-6" value="" style="shape=image;verticalLabelPosition=bottom;labelBackgroundColor=default;verticalAlign=top;aspect=fixed;imageAspect=0;image=data:image/png,iVBORw0KGgoAAAANSUhEUgAAAQcAAADzCAYAAACL39McAAAgAElEQVR4Aeyd9580RfH4v//oh5wzEgQUJKggoKJiACWpCAYwIaIYACNBRBCfvb2cc76duPvU93lXT830zs3u7d2z9zx3y/2wr57t6emurqqurq6urv5/p0+flpPfCQ5OeOCEB8o88P/KGSf/T5jkhAdOeAAeOBEOJ5rTieZ4wgOVPHAiHE4Yo5IxTrSHE+3hRDicCIcT4XDCA5U8cCIcThijkjFONIcTzeFEOJwIhxPhcMIDlTxwIhxOGKOSMU40hxPN4UQ4nAiHE+FwwgOVPHAiHDowRqvVEvs1W01JWy2Jmy2Jmi0Jmy0Jsl+Y8r+p+UmrJU3vO/ue9GQmPvhM7OORZ3DcbLYkbjl6RNAg9WiS0QhaQRNoZ9+d0KJ3OpwIh0w4tE4XwgAGYsCvxalMB4l8uJ3IH1YD+fFiKE/OhfL1qUi+PBnKVyYD+fp0JE/ORvLjhVB+txLKe5uRjDZSWYgS2UhSCdOmIFyos3X6tNDO6VbvBPpECpUWeHK4coO6KUGaynoMXlMZ2Unk3c1YXlsJ5cXFSL47G8nXpiN5ZCqUR6dCpcn35kL5yWIkf1wN5aOtRKbDROkZpmku9FsZHWjrE4nnPfp9IhxgQp2NmpI0W7Iap/LhViK/XI6VyW4dCeWSoUguqsVyQS2RC4YSubDmfhcNJXJx9kwe7y4eiuXaeij3jjumfWU5ln9txjIdphL4guJEm6gckCpEM+1gJ23KZJDIe5ux/GoplCdmQ/nceCTX1iO5uBYpvpUeQ4lAC34Xeik0uaiWyGVDkdw6GsrjM5FAj/9uO0GBVtFqIbxPNLsq4fiJFg5udjotzWZT1qNE/roWyZNzkdwxGsslQ3HGaKlcNJTKhfXix3/7XazPjikp4/Jh1FQZE8HyqZFIZzRmsrc3YtUqkqbNYJ/0WYuBySB1QjppNmUuTOTvG7G8sBDJl6ZCuXk4lEtqCGiEbyoXqwBw9Ligngo/8O3euWc/70LoxzcqKGK5azSS781F8vf1SLaSWDW70yogToSELyQ+2cKBNWvalP9sRvLt6UBuHonloqFYmeiimg10x3QqHEpCwTEdjOd+vsAwoaEzms5gsVw2FMtto7E8MhXpTDjaiLV9W3b4hPmkPKvW1mwK6v7wTiw/Xwrl4alIbhmN5dJMQF9YM0FtwqGgjeHcaODwXrznv//uYuiqQibWNr4zE8h/tyOJmycaRJnnPrHCAaZcixN5aTGUW0ciXQ60MZE3EymDoTmU83yNovSOb6p+MPMFtViuqEdy+2gkT82F8r+MOdXuwSyKXWKP9eAgvEdzY1AyOL87Gyg+wMuFCOhMEDuaJHJh3WljVThV+mS0qHpfRVfNQ+Oos+SI5BdLgdo04IsTm5DTZj+RwgEGmAli+dZMIJcPxWo3cGtWN+P4DGaM1c6sxWzEe3vnf8cz+fa9n/rr5IvrsVw9HOrgmAhiSVupNJvpQAsH3W1oNWV8J1IaXDXEsgGtIFueqe2mwKvhl9RwbLi1PCtj70kN5/bO/uepCnzX7hV1bBqBzIeJ2qAGQfiebR8+ccIBxhwPEvniZCCoq/+XGbCMqYyRjOmMkSzflheWT2rfllO+2VU+00D4Tt/rgEBtZtkRytNzgYw1EjVeIsTsd7aEPp/fWx/AfSNtyshOLE/MBHLxUCgX1SI18CKc/QFdxqX/36cFz1Xv/Lr88j7djHZKB136RfLoZCiTQXpipPxkHdl2A228EctDCIahRC6o83OD1BhMGaWUp4xWMkha+W6p1WVMqIxZd8xs70itDs0biuSWkUDX3pONWNfiDK7zObgP2rYZfIEfmwK4/+liKJ8aCXNjr/V9P6kK3IwePv6ow4SxX5/hvepdXq6WqgZ5cS2Wr06FMtFwBuOD9n0QvvvEaA5sWc2GiXxpktmKmbpd7TQmcQO0XWAo01WUp2yZOa0e0nJd/n99rhJCaoSL5fKhSB6cDOVPa5EsRai6zlfiODEdOxBoC4tRIn9cjeQLE2wLx3IBdpdMUzB8gQ//Z/jz83gmvxPt7J2Vs7qrylu9VqYtrSXy2BR4/2QLiE+IcGjJSpzI49OB24nwZus2puiSb8zkp8Z0vdZh5Xqb+dz6+7p6LF+fCuTfm5kWocZKt/13NAWFgw3BsJOm8u6Gm4mvyQyNirNs1jd8kIJXHy9VeZTxv6l69unTrbzBUVlHLdWlzpMzkWzGySfGQFzmp4EXDqbS/nQhkisxPu7BYMqk3uxkDGaOT5rqdidW9Wy9XHPbn84BpzMDmzDxB4HVb3D5qi/v2FJlj/+OsURemA9UizjKW5/gO818FX44zw4EBt8od1LSPmXCgD7z38eLvbd39t9Sw5P7LnN6yraKtR1sGGhfuaMaOx/FFqh9b8Ihb9uDyW13pnLVUCK/XArFfFLKg2fQ/38ihMO7G5FuVxZONJ0HsDKd2RdyhonlluFAvjYdyMsLofxlLZL3NmL510Ykf12P5JfLoTw5E8p946F676E6Y3k3RrQ0Z0irv2pZwbtdAszVdVktks+PN+Rfm25f3m15Hg17hLMvcP6kKe+sR/LAeCSX4lmqeNiNC8NJG74r8OGXMwEBfq+vx9rG92ZDeWXJ0QFPSn5/WQvlZ4uBPDYdqH3D0QIY7JcJJI8OvlDO26ylyjf/2Yo+kQbKgRcOS3Eq35jG3bYzgxoz+ClaAMz94EQg728GEiRJxiClwaj++c43oXn6tGzEiby3Eei22A3DQebS6zQAEw5+O92erTyDwsox2HAf/s1yKNvJ0VkTYxPZSlJ17rpmqDd8+wOyLCTcu0wz0P4naqj97mxDPtiK9NwK+DbfkCrfBDSsRpLIP9YjuW+8odulVTg13O5O4ZlYl6Ockxl0TaHcv4EVDqi3+M7/aY2zDjaDFYMMRrCZyFJljhpCIZbPjoXy5mqU7xY01bi2t6uz28N3PvtbcSpvb0Ty9ZlAPjUaymV1Y3Z3JqMMQ5k5dcDk2ouDHe2HH0sNvPs4s+HOCLjdmDKBD/M/OHZ4bspUI5FvnLHyszWpMFZoToZnUvqqA9Wjg/vvcIRwvrye6MyNPwpaGsJH/UA4e9GDo5g7N+E8HzkA98eVSO4cw+HNncMo49v+G5z8py831iN5YxUflHOP48Ok3151D7RwmAoSPalXpeIr4UtGMGblK+uxfG061L14DmLZyb29EGnvbfuu+M+x4lRGG4n8bDGSL05Ecu1wmDleIaDM+29/mo2pyHeNhvL39VgQRAgmHbA9DByD76Cp7kQ0W+pV+NZqJLeNhLmwtUFWTlXYlZYOmucLwFos1w1H8tBkqNu5E41YlypGB/BbpSVU98NpdEoTJotmU4a2I/nyVChXZM5vZRj5b9oFz9AHAfHVqUhmgk+Wg9TACgenNURyFSf4PLXcEdwzhHnrzkuHEj2JORG4JQTagjLjWboy5zNsE8/MRI8ac77CNBpnyHTCwZ+1ynD7sFOO/3x7/XAkLy1GMh8ysx7+lif9oZ3ZIJEXF7J+ZMs2g9/g8/tAHgPPf6fCES2jFsv1w7F8ZSqS11dDWQgTnamdwNtbY6sWDsV3wExdGEtxwsKXgbMuVTg1OH3YEVhvrsV6cnevtgbl/cAKh82kqd5uSH2fyMYMuqb1BAP/2YfHhbkfAqEjg7RO68CaC2N5Yy1WvwtmMaeKVzvx+PAr43qzrxtoiZ7VeHzGndNghmQwdIThLIQda3yMjh9to2FFOgP7OC7D58Ne9cy3Vw5xajWQv6xHTiio+3gGPzadPsW/UA3itBMSCIj7z9AbeA1mBFcVjOQBJ7ar9aT5idnaHEjhwAxR246V6ZhZd89WjiFyxmA5MRTJx1uRziyHMaj8Ok2TILLUTJjIq8thppa3HzgCvjKzGsz+O1V9hxK5rB7rjsnb66HE2ZFwv91+PFMvBr7PjUVyWaZyG45VHc8Gmw9fuQ/2nxOwHD4jSA54AB+Gm37A2q0ONAgC87hYHQU/AJv1w0/ZUiZOx9AOtofmoQjebvCej3cDKhxSYY/dn427MSveej+eD7L97HNrlW5lx5UJasJ5A1Rdp2q3q982oDqlJiAYcDcNh/LWWiRJn5kYg9wfVkO5oR6p5d80Bh1EpoVVCLR2mNHkEj3w9tRcoJG2NFoWguEsNJr9Dh6MldiCvjvj+MSHsa0/eb8SuehUolvZHPPfb3vHsfxACgf8+D813Ghb2xrx/eWEExiJ3D4Symoca9CRc09E1GenQmN0+3AzkrvGAt0xcQO+0B7c9l7x3/rkp/SJWe7SWiAvLYTSyMOi7c9+YluEulZvtmQnSeX5OXcmhcFDmzaIqgSvvXMwu90BhAlRmT43FqqWpkFezqFA2EXbVks24lSuqwd6xsZ4w+8Pz+Rb3t1jgeJiV13nsx+H1PZACof/bHCwh+3Lgqg2gJRpc4In6uv/m+VAZ5GjQHD25ufDSJ6bC+SGYdReZy3PB2NpZvb7aM8X4v5LuVosT89Fshilku5TZVehQGDdzIj6nRlwWpxJoS0TADwbfnMY7L2mDs83jkTyw4VAsLcQIPZo4DvVw2AsjTjz4QsC+qT99IQDW8j1HSaSwtg5qM8DJxyYfQkc4jOyMa6lRnDK3DYSyGQj0UFwNIjs1t04OGGge3ACo59TxQ1+PzVhR17er1wVTlW4YJmvb8cSp0Wg2259tXV/lKZyajtWw+6l+GiUTpT2MtOi/QA/B97+th5K4wg5boEDhBRGaASxi7PRPqEYTknBMTzz44Vg31vc3fB9VN8NlHCAqQnierPuuWdxHLNBY8RtG0RDieB+y86G7aMfBULZ4GTXYXgnkefmYrkyc+RSjaBiprZ+KTNnM6ATHIlcWo/lkclQPtyysHTdZ23aJ/o2noj4G1ySO2+5AUIbVT8fBrOBXF0P5fn5WMZVAGfC6ZB2Ug5CO4zXW2lT2Olh4Fu/6Iv1x9cm0DA+NxZ8IhyiBk444DTjzjZUEzcn+FAqVwxF8ic8346IilvF3BjpiIj9+9VYiITtGHj39qwxM6mv7puwwA2Yrbv3N9y5jKq2XB7OQi3550Ys944TkMUtJajHb8N/9rUX8p1giOXO0VBDw7Oud9uIR08VBy58Yn6/6nYu/H65vhRLDcVlLZEraqEsx1lg2gFeXgyccPjzqnOPNSLbTOAzt+V9diySU9tH3+uNmZxtPrZnifHgBmz1Fq0NVJvtrK/MeBfVE90y/ddGKK0m+/3tg9WchP6+7iI+m5ux1eHjNG/HhFE+0yK4Yo22Xd9me/LwfC46C7j2fu1VDvx+vJ3IbaPOYc76ZsLB+u/ywTuH7kIXtfpEOOwP2XsR47Desz31/QUGT+dZrniX6D0GeOLBHIcFU3/qdfDZUegnZwMXOt8zlBkjmx3AhIP1FwZ3zB3LNUOhvKvMTb1uCxEccDT5jVWOtnMUvfPxdq3L7BqWZjgnJieh7tTD8RgIBuhD3+eCVAO8gC/FU2ZfacMffdX3LjDx0eebsxu3A6U5wNyskR0BuywrOLh0KpGfLBBA5ejPbCZgsIvAkJtJqkYxjGh2biSf3UoCw5jbUit3yalA3lgL9WAZRjm2Kn+3EsjlGg8h89Tcoy6r0855AM9PFwPZZhlx5AVuMXCAFQPwjxZYQnWPcm19/tpUMPDHuAdKOBBq/jOjBPtwEh5C2oxJaoRlv/26OleluXXj8WJkJyC4Hu611VA+jSrMSU2b8SqMhdZvP0U15rzA66u4LKfyynKkZzQYHIY/UhMmhj/7r3V5d0DcOYr9JtItYTS444VTd+biD6uRXE7QW+9EqfW33P/PjIYSDniU8IESDgQw5dIYfxCUn5XYtUQjFL2/SQiw/TkH2Sx+vlO0iIjAKhuR3DvGUopB7QyVOrhL6n4ZD9wDQfmbR9w9kzcPF+c7/LLgy1+i6LLF7AtZlCrOpHyw6QKiIBRcEJpiZj7fuOqlffjg3c1Eg8OUhUNb/zMhzAVIi9Fg+zsMlHB4fyuRm0Z6sOQPJXL/RKzHqHthnKNYxi0xXABXnHI4FHRJnVnPqcbG0Dbj2YDXwZ5rVAgIu+HLeTEiWChr5XJBkw0K8nU3IrtaDucoQumjLRxFPO0HptpOondxmlu44cH12Wmj9nzdcCK17ejY97kbfgZKOLyxlmj4MBsIVamb+RJ5VKMLJwNBXHYZiF3BpSyoxe76ODfAyziwwe4Y32kPMDz/298VdgfFWaaJ6HecpKxH8tQsB6ZYmg3GLVEcp+cova85GP7AkQlc8q4ZjjWQT7fBddzfDZRw4Ablq+rdNQeV/LVEvjkTaXTk405A4FdVvtWSlagpz8+Henzb3TBd2Fl8JjdhUGZ4xY2nOdh/LWeDo8ZuRyQvznMehQAzg3OEmf5wE3fZ7oLQNFyoAB1K5ap6rPaaQeCfTn0YGOHAmvGnZwKeXOkZk2xAlFOuXntm1oX96oSY45iPkNhOU3lhAQ2iegb0caGDvscdCRsUaCYvLQSCQfQ4GR17oSeu3d+bzYSD2WyyFFyBO9OuLq9HGqmql3qPa5mBEg7PzbuIxxDRGB9i+kQlnzgEXO/eSxzC40RYM64ycJ+fC10UrFKwG2NuX0js9QzOOHdAaP+fzQcSpUnfArAcJfzirv78HELVeYX6eDF+IuVHfMsfLR5yYKDz7GA1MMKBSMRPzrLvX4T+YiBAyFw4eIR9aSk6llb1XgYTMzqHpn612NDtSYcDt9zi2QSmMT959rM8S1l/o2bfNBLLaysNSVQwHHWnsYPtlBCv4qeLsR6XN95xuMsmmwxPvLu0lsjTcyfC4VgY7RAOj09zgUr3rUyMSlcMJ/LrlcEVDipAdKszkVeWQ2HbrcrIVgiAdmObn893t46GevYAJ7NehNNxLYNh9ZdLsQs+m9lYyoKU//AQS1N2atDWjmt/94J7YDSHuNWSx6aL2Ac+gytBsxmTmeDq4UR+t3Ic3KbPjvEI476VJPL8grsf1HBCWsYJePHz7PniOpffBhoWvtkabOGAxvWblcKorbs0noEWnJiGxdLjmzOhMCntNciO6/vBEA7MkmlLHpsq7oOwgaBM7xmXyL9mOJHXV+MjdUy73wzEjJY2Uxk+E/PwM2OEQmvXqJTxOxjb/Hf4Qdw3HmjEZt2yHODBgHD47aoTDjnf+MKhzXgba6TyE+Fw1BmidVrPSHx1imVF+1amEdkkvgmHP6wNrnCwC3hWolju1mPXzm5g2kD7DFjYZQxHfoq9gaXFF8aJexENtkBtteQ1hMNwcUwdXMAzPk7c/0QeO9Ecjr7ahLcgQV584eAT0wYDRG0TDkdd6B0QPmb41TCWByYaakw0XPjCoZrhC0FhuOJb910iD08GssWt08foUNV+NDL61bNwqCfy2DQ7Xkd/fOwHB37ZgVhWIBzCZku+Ou1mSGN8f81ozE56TT3R4CnH8QyAT7yqZxgcZ55vTYdZkNrM0zETjD4edOB7qrIKgdJRZStvAuZ7s0EWOWvwdizA3asrSe5I5/NPGVecZcFl/UQ4HHHpyPo6aZ2Wx2YKd2Cb8UiNwS29us6tU2xDDRaDw9xrcaq3UHGtH8uBbnjw39kzAwI88d9+9h/hcUU90mv9uFiW9qoE1HHNoz+vLOMa7pampmn5/Qcnjo9cPJAT4XDEhQPMCJFwfb2IQCWZKuyIaMQsmB7i/3rghIOLhcjRa6I8Ixi64cHHjS8YfOHAsw0GrYv/tURuHnYX0exoLIzBUatZjv3C28r0cVR+JhThEzNshw9O/8tCfSCWFSYcnpzLbjDKZj0bHOUU77aXcYIakJmPfnB8m2jV+CQgGGBmm/npvw1yEwTufSKcwdAfXoGlCNP2vV+XDpJaIp8eDfTmq+MQBq7M9J3+Ixx+thjnd2hqXzNNwfBmeCRo7zMnTlDHQzIiwZ+db78cVdeM3jam/SfMOhfADsrWXLPZ1OPDXM7DzG7CwQa19jtjctMAeMdOBEx+wzD2ieLAkT8oqp5dG26LlFurj8odFJ0Gfa/58MML87E6OJX7rcLB06S4evD5hZN4DsdiXYlweGEhVp930xRs5jP12Ah8cT0RzmEMgnBg23IlIuBL4GwMnnAwPPjCwXBCemmNvfpAhnZCeWw6kEtqsXAhTnlg+P+tTo15UEvkS+OhsGU6CFoYO17PzBVC0vpK/3288f/yeiwvL54Ih2MhHJgdWC9exVobbaFCHVThoITmXkpCmh3fACUMRn54QD46WVziUzWQwQV999/h/vulyUCjGXEx7HQQy0NTmYApDQYbGHzfjlunpXxnJvCu3Tu+RsrNOJUnZrNgOfkWbjveDIcYfH+7chLs5dgIh9+tRhqEw2dgI6bOArklPpGvz8TqEtyrynnUyqH1EBT1hflALj6FAXK3ALC+704T9Zrkjg/tlwauPS31nUTuGiNAbyZgvSWZCZcq3OJ9+Yul43+MezlK5evT3c+hGC6vHo7lrbUTzeHYCIe/rsdy/YjzbjPNwYgJc1sea/JHpogBePwiQbnwcC2NGv36SihX150abP0spyY0bHCzP48A+Hh796UshHp7fyuSW0d2q9b2vQpZT7OgPVysr6qH8uZqKLEezjqe2sN0mMrDU+23XpXxZ/9xwf/X5onmcGyEA9e33TTiLiYpDxL/P8Lh8xORXtF21DSCveBBOHDn5d/XIr0dnMFuA9fvoz3zzp/tMVq+t+ncoKu24fD9+Oc6eGTXo1qltjrtvUsTuWMkknc3IuF+jb36cRTf1xup3HeGL0xzAoflvpoGyiTEuZWj2I9+wTQwW5kgZHQnkltGqzUHm/EcwRO5ezzS2bNfiDxX9bCcGN5O5PPj7s4Kf2eiTSB4a2YY/KJaKjfUY/n9SqT3YHaDN0pSeXUllGtUK3EalwkCw6PW6QkPDJTcCP7QRCRjO8fTxfrD7UTuGHM+ItZf6ycpfbf/TEILx1Dz7Eb38ruBEg5LIfczIvmLJYQNGM3LtqIYULeMRvL25vFaVjCrsxT69oyFoq+2M1hffY3hqqFIfr4YylbS3HOXhq1RLs55aZGtYYdPGyx+nYZbJ3CBJVGXbW45X44I+398lhdoUf/YTOWGzIHM75v1j74bHri3NBjw+BYDJRwg1j16CnG3OlweMNfVY/nzmru3oiwxj+r/ME3lF0sNubjWWeXfzdQ4RIV6mziX/vS65Ug5DHRPzDKTthvpdBb1BorfJhrKZbVIfr0cqV2k1/bOJ85ZqqGRcVKXy5VNG1NB6BllfeFw33ioN22fT7gPu+2BEg5EQn50strmYNqEm/mY4SL51bILq37UGRj4mM0/2CxUfZvBSO3ZH6Q222GT+PxErKHrqYeB0AtTqeGz2ZLxnUTu18t7i0A63YSD3r5VS+SmeiQfZg5SxwG/UTPRgLG43+fCwVuaGf8Yrr81EwzEXR3deGGghANM+Nx894t0nXBINe7DD+ZjvSPySDOvzmpNmdiJ5M4Rgra0x6swpq0SDBcMpXLXWCQfbR3cSQncvLfJco3Lb7z4nB00BxNKGPXuPaPFTQaJ4EfRjQnP9zv6uBGn8uwc/WvHbxmv9v9ni4SIOz7LpoPgeOCEA4Y0Y9CqWTUXDkPu7grW8EdVOAAX6u5KlMgjXBDMOYhsd8JmMJ3FPcOgMi9ektwvMRzJ39Zwbz743ZWt0029ffuPq6Hevq2u07V245zh2VKHfwfr49OB2AnOXrWWgzDy2XwDnufDRH0cfN5RXJZxm/1/a40dn6Mt9M4GJ3w7cMLhvY1COBSCoLBB+HkPTkbZVW5HcwZAMHD79Q9wdMK1GTU3WwObcKhiYAQD90v8dtn5HcD8VduWvTEPuMGvIpFfLoVq70BI0a7BY0LBx63lXTIUyU8Xstu8e1zS9AZXb8ujXuoCP6MNNB23JLV+VeFW82qJDO1EcvpEOPSPCL0Q6mzKYHOYCopbp41Bc0b2tqLIu2Mslv9uH13NIW225E+rodygjl3On8H6ZMsJ/hsT80w+4fkRKNvJwTWGMh0YQNtpU74341y1c5zmO0DO9uHDQxn+3zQcy1/XQr0dq1zvUfhP3z7Se1aLZVO5H4ZjHL4uqYWylhxdvukXTgdOc8Cif+WpHd3XN4L6jOznsb33t42Dr8f7RYSqeljP/veMF+NnxyK3nChFaLLZzWdinll2PDoZ6pbn2WkMuycFtI+lKBVu1WZtXgWDj9/8uZbI3WOhDO8czctw0NDwrr20Vm3Mzvuhwg4P0kAQ3Bx6q6LdoOQNlHCAKDDwPRptuQfDUi2R3yxFEjePzrIC+BnUbCMShowlglnPYVIVAB2MgZT79GgoH20naqs4jDU+g+KDrVg+ZcZRtYMUy52qZQ9wsR36+HQo67GLIHXwZU7/B2TUbMkvFl0cDF/Y+kLBnllSfWUyGGihYMJt4IQDHXt6brdVH6KXCY9x7dm5SNVlQ8j5ThEMjbQpv1nmOrt2P/9OwsENvkRuGI41NibMbkJGtYfsBKduT+bP7lRn+/tyXnFJL+VOq4H0tML325VQrq0jvJzh0ZY5lvq4Br4LaokeiiM8H0ejtb4jEkWJiFZPzDqDb5lP7L/1h/6+vBieCIfzPVAO2v6fV9019CbtSU0F9vMg9MOTkazE3BTd/xlp3/C3TuvOwL82IrmdiE6lbcuOwqGWyOVDsfxQb75OhOhMYbMpQZLqTeIYNflhg9hKUtlMkvzHToL9LJ8y/Ci/o79UuGQ25Jc2JUqbshQREyMULpRl8Pt4LT8zsExofGYsUs1Dz18cEbV8PWnKvePFaVQTBFX4vrAWy3sbJ5rDsZWOY41ILj7V7u/gzwBGfAYfbrAz4bkPllo9YzfV7fihyUzFrQi84vfDmJfByenMJ2cCeWkxlp8sJvLCYiw/mkdguB8+Hc/NM6ATeXY+lmfnE3lmPpGns99T+j+WZ+b5uXfPLiTy/YWijh8txPLiAjdgMXvG8u2ZQE9j9iQcLMZGLZHHpkLtJ2t9hwenSR/LdygAACAASURBVOQ4OYf+A7Q5Fzb1HAn9MPwWuC0Mrby7vBbJXDjYB65sUhvIZQW3TN9QbxcONpu1bbfVEnX1xUnosE4SqnqfaSU8EwiXq/uYyVejRIOs1HZieXsjlj+shPLN6UAuVi+9YhfCYK9K3YzsvBdxW76k5mZyDJN6wQ/aR/lXmulheupxg9yWCS7VvHzpUNRF1CjOXVxyavdFQmU4tf5MOPB82ZATLBwCe3sz1m3BmTDWiFLgJcm3Xt02qo9DY9x+pfgq/Guzug9tvJLh6M7RULWxfrV/lOsZSOHAluaD6vKbGfA8e0MbwbNB85r6AxzMocVmPmZBNxNysKmpqv12kshi6I72vr0RqZ8Aa9uHJgLdhbhrLJZPj3FRbSI3jiRy3TAnG2O97t4N1t0Cwgayqen81xlPHZ+ckLAZ0MqUB2v5v6vD4Yp3/n9rz/Lc+6IdDHScpyjXaf8NhvL3CAj6e9MIh+ASuX0s1q1lTss+PNWQJ2dC+eVyKO9sRjK6EwuH6naSRJdd4LfVSnN8M8Chw0EGGnW9tMj2bLb74i2B2mF2ePnWjPPZOEhbx+2bgRQOXCD7k3lCnjmCIhB4hmF94eAYmFOO7pDQ/onXUtdgmHY+iOTjrUheWwnliZmGfGY0kOvqoVw9FMkV9UQISEp7WO3ZK1d7gtoU3HrdYMXl+YIujk6U0z54ZZww2L3ut4FpA/UgqbVn+PPrsPqr3lk5K2P/SX14+db+uwEaywX1WHCeunQoVrxdUY/l6nooN9QjuWdkR74725DXV0PF93zghAYu2gfRMBDoD09hb2jHKzj2YXbPiR4oS45pvIr98vdACgdcft9ed0bJbrOaER/j31bMDdKmxmLtd+thGAEDHEed2V6cDGL5aDOSP65F8tRsKHeP7shVNXdRLQPeDZT2gQrjMeD9QcSA8IWWweILryqGJc/KllPq9+vU7/dbvnJQdG4TGPx2DAbth+cg5ferDDf/y9+5OsFjgUsTIpTlp8ulU7FcPRTIPWMNeXY+kD+thfLRViRTQSwrsTOqQj/oqFqeb3jmGsVmU66rs5Sr7mMO11CiAXgJKHRYS9D9Dt7DLj+wwmEm4Fozpz34hDfGspR3l54iKpQ7oUnQ2c00ldkolaGdVIXM71dj+e5cKHeNBXLFkLvOXgc3BizW46zzVQvowmDG0BkTKtN5eQbProHmDT5/gFn5csr35NGvcl1+Wd7zv5fyPv7sO6urqh1r1+out1Ouz+q0/vnf+2WtTUvdd842coEaE51fCELjqnokd4+H8r25SH63Gss769g2UpmPnKCHzoTUr20Rr8JpdX5b9mywo9XcdCaEP6HkWIoc9sA8CvUPpHAAsetJSzhzzyA2QpPajEYK4cljYL8wH8qfViN5aTGSp+ZDeWAylOsxapaurre6ygxabsfK9ZrqgNhj1rbBQ51W3u8PeZ3aUybPliJ806mc5Vt5w5Hlk5bf2WD2y9hzt3dWpqpO/509t/U572u7dlGuC1ihDQZUliVfnIjkmXlH5z+vov05e4O10SmFRzj8tqrb3gezbxyFAb8fGAZWODTSljxFoJLSjG4DzDGNzbCJXDsc6XYgwiDXCtRI5QxVnZimX/kGDwOAZ79e/lu+vcsHijdYyfO/85+tfkv9d1XP2qYnQP0yVofCkLVPXrmMve8Gl31jdZbrsfekWp+3VCGP8uT731ld1r6+q7lJANqqIOfUaj0Sokjr/xL8frvaTi2RH85HgsPUfgbYcS47sMIBR6DfrXAIq11lNOHgE98Zwsxe4BjNmM0Y0i9/mM/V8DmNx2/X4MoHQrZV6Jc5m2fqBRbDQ1VdPgzl9/auqj/lsr3+tzr98pZXBWfnd+3aRtW3fhs8s21LpCgXm+JEczh2ElK3EvVATCqbcaIWbWwEPqFhBGMGUmWgbCCUy/HOL2/v7Rurx/LLqdW/Vzn/u6r2LM/a9eHK8zLhkP/3YC/n0Z7l+W37eQp7RZ1++TJcvb6zcrva82hjZfzU2iNP4bN+lISYvbPypFaP/87yOqU+fNcPR/KH1UjvCknVeQsD52BrEQOjOSAY8Cv4304kT8425Go1HKINtGsOPiMoo3RYhytjlJjOvu32zsqQ5vV7zOm/3++zzsIZvMbwBov/zp4pk8NQ/i4b+D4MVlfVd1anX96e9bsOfez6zoPB4CS1erulVt7g8r+zd36e1dXtnZWxVOvO4NHlCOdDhhry1Oy21Lc5kxNLM9vhOs7Lh06wH0vhwJYUy4bNpKlhyP65wXXoGBAbzodACdpuiKwiuOX5aSfmMSYk9ZnOyjMI/Hp8xvLzD/LMsoczDNeORBob4VMjsdw+GmsIuM+Mx/K5iVjun0jkC5ORPDiBE1Ekj06H8tXphnxjOtRo1Vz/973ZUJ6ZDeT7/OYDjfnw/Hwo/H6Y/f/BXEOenWvIM3MuKO2Ts6Hg+MMJ0cemI/nyFPWHQqAcjHsPjCfyufFYPjMeyZ1jkdw2GsstI7HCCbxXavTqHgR0CX9VeDLhVfXO8qrwbt9VvvMEVF5HhSZp70jNZnFDvSHfnQkE/iMcHhG7Ew6VnUP3704Dux/5x0I4OC9E53BEwJGxRqrBQ364EMltIywbzIjo7mdwBHSDmMFrP/KrZjL/vQ527xv++9/xveXZd34eZYvyzvils05mCHPPBUxWl33np1b/lfVIfrIQyJ9WY7005tR2LFMNvAYT2YgT2U5TPXbO/jtrYn7Oi9CpvoY/1GA0LP2dLpdx/5uaX3h7Ou9Dzp7A9K4+6qaOJPMExQlsPU70MBZ+IMBHRC4C1Tw/19D1+sWeF6X1i77ybDRpy1efEed9iVEZvDnbULsQtm9IC7wX+PXzfDrZd9a2j3c/z8pZ/aTuPbA5ZzaC0uIr86OFSP6yHspEkKjh0i0/7PzI8bNTHAPhgJaQaoy/v65FepP2A+NcGR+qm7FKcZ8xsm06JWKmSpdne58RcuYpbe8pA5S0hMrvsrbb37kzCES4Zr+d26M+Ox7KFyZDuaLe7o1nTNf+vWN03l1Ui4R7INCUmA2cF6BjuNPccanxH04Lz/5sYeU4Zq3lrGxeh/t29zeuHvM21JgQWrdzEPPL2zNl9ZlyJTg4GUocSXVYqqCT9dvoZfi4ciiQB6dC4RTnTcORICDxmOQCYN8xqopO5bqsDT+17/y8qudyXfbdbi3E+bxwDQDBcF5ciOTv65EshInE6bk/2Ge0OZv0SAoHZjpmJo4Jn9oh5FkoD03GGq9AZ978IJCT4sZQpP6zEdDP78QAbd9l9fjfwRT6X4OrOluGzmi1WJmWbbHbRiJ5eDKU5xZCeWUlkjc3Ynl7M5UPtog5GOtZAU5PWr2WKsPlM5LNTKkKv/sm3EwETs6G0OfrW+AeC1L5zFhxBL3cb2hieaT85+7N360GircPtlLF4xvribyyzKlRlk+h3DoayNXDoVySxZVwdTjaoGVYXYZfn/Y2yP08e+Y7+8bK2X/XRgGv5bs0ca7v2nasF+R8aZLTsaH2gwOBTqM7HrQ8csIBoUB8gTfWIr2DguvJLs/Vt4IoEFKJWLFm3OudMUFVanWS+u+N+ByMuqYe6tmJx2ca8upKJO9sxlLbSXW5MxeiYhP3IBXOeLiZvaUzyEOTu2MfWHsqyDxNh//4Xry5drQiVR1EyBBpCwczwvK14bQD7SiDqo6gtYt4wCMu0ASKWYubMhumMhokcmonkXc2YnllKVL7yh0jXC6MwC40DBvAbW0jAEraor3X8iVaGH18vuhGOy1PP2qJXDEUyx2jsTwyFchf1kLZjBES7ZreQfB62N+cd+Gga9lmS9JmKithIr9cDNWOcHm+xnTrTn/NakSEOPaDoEY4YwZ7Z+V7SSEmAT1Q5/GRuGIokE8NB/K1qYb8cSUUrq3HEBo0WxICd34as1hb5mv8zDDFkuDni6jGbu3swwGMMJLBqimqcy2U78+Hep/CcdUajHmBfzVO5Ok5d0mtLQWtz0Yv8GLP0IFIWL9eivKbpXK8skTKY0GgZWJnaekZmCBlcmnKaCOS3y835LHphro9X6l2KU68uoNvar/IhBNt0rbSwmDwaJIPdI/H8vJeOetPW2rOV7ocIip4IneMhvLKMt6WaXZtwNEUFOdcOPhE5TlsprIYxCoUrtX1eOGxpozi2RAM6f7gyonkC4qKGanTt/a9vYcpbxzGqr8t728GGjFJVUHPGAfcxvjdUuvrx2ciXHMUWZdEHpzWtgmHvF8akDWSIY2Mffyt3+ABHLJEvJPlhefSDt5zgWDPOc0TuW8ilnp2Me9+8E57TT3WzSydynocy782AvnuTENuGLY7QNrb9mEpC4ycPzwBoeX3sEv53xl93dIYd+5Afr0cyEIUq0HZ+MWF8zv/AuO8CAes6ttJKiONWH62GMi1Q4185vQHSlk4+O8M0X5q5U3SV73z8+w5/06ZM9GtOsKg2ZZUbpxTY547sdlNKNg7iM0SidOCaCJ5O57w2sVg7KXXY72azR0N7mwItHaOfupwxmGnlxdxU98dXMXwoLTLZ+NELq0Rico5H/UqHOx0bYGX4pQty74v6fKuWDbmbZeWksYfpHmZbLnh5/HOL+s/G839MjxrfZl2fE29ofaosR2Onzc1snVhCD5/QuKcCQcIq0bGNNXr2V5YCOVTI9kdE2pgNIS5FAQrYr2Zlv+GZEOwpTmx8u+cCo8m4GYq1ElnpCrXYe1oWkvkttFI/pNdIdc7Q7YTke8Y3Ngj9Obm7JYoE1y05cNsMGGJx5+A4+EHbbsYFO0wne98+jMXpvKVqUiD2nSmXcELBJO5ZSTSaE0JgXN71NrKfUXQo028vxnLTaWbtIHD6OIPbPiG3RFdaubLXMeXVbQr90frzer231kbym86UcCXsdw6EsmPFyL5eDtWYzzjpbz7U+7XYf4/dOHgDHKndT04vBMLQuGuMXwT2o1zVcTJkejNtHmeEbTinSMcUZUiuXE4kEemOLob6naYCQJXpljv238YAj/636zECvNBmRFG5Bp67pDgSLDNiKTWh6oUI+SHdrflMTBa7Y853Qz+7kYkuoSsdz7UZvygg6qWaFj7sxGY0JHdAm7/1lB63oE8HcQlPiLv8qFInpvHMBrJDcMm0Kqd66ClDXbjJZ/m1h+f5lbe3tEmBm+OmnNL2FiD8IW9LWH3R4feJo1DFQ4QhCUE9xA+N9uQu8ddhB+kpJvNC+3AEATCQFIbEkuEM+RTjh8aAef5mWUurSV6NPfxmUDeXE+E9f58yJqzKffoete+can73oMjc1b61kwki2cReBZHpFeWQhU09NVgJfX7Zu3r7FRL5CeLXGE32D777OQ8Nxfkd3/6NNcBY4LfBtxQIkSDen3l4LiBFxcip5UVmkBBd6MPtDEY7h/n1rBE5qNUb0b701os35gK5Hq2T9Ww6Ryz2ng5t5cU/GV1G+2N5tpOvoQyTdJpukQTx/P0+flA70plsjnoRHVQwXFowgE1rpGm6iV333gsV2SBTx0iC+lrCPKlrCHRBpEJDvu/O000HNtXJkO9OHYqSNUSHKfO6w/VDOTiIsy3ShzPkNQGg75P1Gfhfwe8Kg9taT7EL6OROewU/S3DbrAg4O4ecwbQc80EB2Weg35H/5aiWG4eaWQquxuQ4KaNFkwK9huCJoEsRgeL/EybeG6iAcCDbe2UBLZ7x92ggfINNgxUfGwmBAWeDFL5y1osD082NKCQOWVZnWUal//nNM/6Vn5f/HfboA9MhOoRzH2lZgc7KO73813fhQNbk+zvTwecdwiyvW3zHmufNUECiMqR5f3nnSKb1NMcXJ6T2BiriNX4yhJMk+hdDWWXVUMmcBHj0TFGMZP7MBgsSpxaLERHZp27H4TChGgN35hy5zysfuCmfq3bS63NS2uhfLjJzc0HX1fvB87zWdb6+I8NhAO7FwVu7LkqZXn23Fwj24XYH13gi1eXmRzcOY9y/cZrSi+1M8R67yqwgiuD2VLqY9t0IUrlV0uB3Dm6o167F2ZOcgh7n9Zt9Xt8Dhx+Of5bWU2z+tiKZWk8F3JrOvaoZF98eRB69004KNKanIxM5R/rsdw4kkX01X3edgQoAUoIMgFgRKOMIUmXDBiHhtzeNwbDJ2Z2dC8bjcB+JgiqEMGZgbiVyi3DO3r7kk8Qe7a2HYG4kj3U27CMQarqLecBy782nJ2BPXXrK32x+q0998716wdzodo4yvUN8n9wxd0XbuZtH0w+juxZ44HWYhk6c4eoGuvMbXuPFPpxixhRv8vxPYwmRh9Hk1juGwt0EBJKrhMNqNd4L2mlMrwdyTenGnLraChXZfyqBnHPo9fa81Prn2u74Hvlf50Yne/N/2Xa0z83AtnKLvLdD2926ken/L4JByzzhBD//pyLsXihGps6Exzk5CqjqY5ZyrsCYS5c+6eGYz0RyLXyqKQgBfW9U8eq8in//IILBlvUX7TVBs8QKmgoUxozkOCze7cFTDj7PDSJYITI7f03Yvttwzw4xeBc1Y0Re2n/uJUBXxONSG7h8JxnIPTxU36GN748FeqNXL32F61xqhG5pW2pHZuU/HawXbGk0J2CfRqF6RPXEeC/wOnYm4edez280MZfHs/7bZef82887erSoUB+dGaJzCE3xp1ue/bAn73iy8qdlXDQAdpqKaHeWo/k7uwKN8Kru8FRzJbtA97lG2Fs0BTfFEYZril7YSESrojbyQ6wWLvWif2k9Z1YLq9VB4DJCZFJawyn3AnJ7LBXG8AEofDoYx+/6EuhMls/wYX+aqn6NLy6TGh8ZqG9BdBecByn9+CMa/t+ucTRbrSsdmGa46ltskjl6qFEfr8S6vKNOvbqM05QL3FRrqfFWt3QhGd/UHJOZrRxMNsGsDhtwo2L9zYwKkby2fFILsu3QzObRzZO/LbLzz5PGpx2tcG944Ha2Ahd1wse9sJT+f1ZCwechUD8zcPO880GBZ2kM37n/I7bu7zDOiAhEkYY51f/6lIste1Y72dsdVHvyp3q9p/jzfeNmyrrmMIGrQ+re07kgfHiRGS3eiHORCOR+/GEzGYn6yP10/e2dsirxfKVqVDtM4dB3G7wHpV39Huykeo5irL2YPgzHjH+Ab+fHw9lJnAa5F59YQvzDm4F94SA0cLqtBSb1JcnA3Vb36vevd+7ZQfts2vGje5fnAh1i7QsCK39curzpA+/4maI285D+fky97323y/mQMKB9V6z2RTCv393NpRrCdKZORsBtAPcDQb7T+p3XMtkAkEJNZTo6cYvTobClhEhwNnSg3nstzcx9p55Of79iyXz8XcwGYxKCB/+uosdONLY+1ZlDgRRL1tu2Ejoq99H/htDunacm/Zbaxg9D0fyd8MXNNRzLZ6LMf970ZK61bvfd9CWW8H/vMaNX8UWt+HPaOPzDjd2X1mP5Vc93lT2wSbOdu2HvqrqVeFUi+R3K/2z/xjvksLPBIV5fSXSY91cX0hMCL9vyjMZ75RxwLv2sk7DZvw9Ox/JbJi4sxp9mkj3LRxYt7M2nmxEcu94Qwd0eXtSO5hrAu0dss7lZTIV/q7RhvxtPZR1oulkV8gbo/XTlRQVc3jHXTzr4C7gM+EAjE5guVN1z8w3uqptGEI5HfjZMQyR+FwUQmdXnfRX98Jj+foU++ju5Kb19bBT6IelvZHGet5gOYp0e3A5cv8baSLpOVzeAA8//FAem0b7REAUNDF+8VOlTS3RqweGOHfRJfISvPP4TOcrBvx6EQ6fGg71LEdfL64BnxlOnZBo6ZboG6uB3DXSrsXauNgLB21wZxMrtq5ptV2527/Olpf2JRzoGDPOfBjJjUM7bbOjdcYfDO0dKBOck4exXFffkdeWA3fyTk/b7Q5Ccrad9L+HEVfipnpNmvpvcFbBTr+urDdkJ0WF3W17ACdc/vqCnp9wW6RWX6cUAXLjSCz/2XJblz58/XxWDY+t5ewsS207khfmG/Lp0UDPLDBrAYsKyWz7Du/BO0Z25KcLDanvRNo3vnfr6L01s4PCDx7fXo/k5hE0r5JwzQSq8Rh41edaIj9diPUYN9+X2wZm7tjkdCcCpRM98vwaO1So6OdAk1OB0dJAMGyFXkUgZD1/47xp/b7m8JX64POraaW3jzb0mDunnHEpKONkP/97Eg4gnh9q0X+3iMxTXARCJwCSVJ+zWdfvkL2DCRmQGGZuGY3lRwuBhjo71y6iqLG/XjF32IzRPG3Bh10HTy2Vt9aCSu2BAcjsdfOwU1utr34d9mzvmB1xy2XQVTH1fghYLmu0Qjtg5wTfCeJFcm8nVvhcGBi9Mg3PYIPJoBHlKH/9cCA/XHBXzBGSzi1Hdg/EMhz7/Q/cUZrK9+bafRGU6TPaAGMZl8TSBP/AVW4T4fD7lVgurXDTtv5aSr24S/9mOdRlXrmuw/yPJr4YJ/LsXCA3c94oO9pfnrys75aacKAPhid46+YRguQUy9WD8tiewkHVvsw7DJ//O0YZBIVVWQHLJDvAGuB+alKNtTiWfIKe/nszlkidOZy//WEiv1w3yKIv+Euw5UoffHirnr82HerxcvBh9aGy4gX6tHdrkvW1qg73LpGbR0KZDVCH+68lMUg24lTe3XDX3ONcVQULeWXaFXiAvk6jsP5cVg/kqblQ3t+IdHfqoAxnuCunLA34jTa4eRtnte40MdgZQATI5TSjXyd1sWT76lQoF1UIB+uXDTCWFJ8di+WjraTvAtuHq9OzE46JvLcRyVen3QVLPQmHCq0K2t05FqhHaJKNsU7tdsvvKhxgfn7YAD7ejuTzEy6Yq5t9HPGUSCa5PA3CmM/eI9HuHmP/F7XNSfrDmoW6dZh3EAJfiW/OOGcl3/YAvPbzBxUn5gj15pjYCQgk/kdb7uYkq8OYrqoO8IbqiKceBt294Oz1vcKUbaWO7iS69XsdbsLZaVe/Hz5cPCu8pJ4GUaYd75wjWio31EP52WIk40GSG1L7KSjgCYLpmpbjw2Kw53Arv2HYjXQgGByk1PPhFoFf3dKJfpbxkPdd6RLLd2YJwHL+hIMzEDdlKXIHxO4adf4fJiT8/tOXHH6PdpRx/UwE4z5LyYNqqHsKB1R+tugengh1nYpUMqB8ZGueaRAZgErEOodmIvn+gjP04EkG8VTweLNwrwOhH+VoHz/511YivRLNBjb9cTAXSw3Lu7wey48XQon1AIyb8YOkKQ9yH6fu1DiiVOHB8MQaHy89NUL2yaIMPugP/gJ/W4/l/jNbfJexxi7RwmAw+Oy/9S8v7x0c8vN8pruinqi1/R8b+Gf0d2nEUmA1ZiJh6ep5mFp/SilwQb+vTzWcJmr4SFONBg3dTLD5ffafod/19UheX82iTp1Dg2w1P7slPGdBnp6LRXc1uvBmFZ2w2xCQF4exyUZvW75lWPYQDlhVU73vgIZMKDiCmIRyqeXlac2dlCRmA2cUiliAu9eGZaAO+7/NLERa+ty429a0vpHSB/+/y0v0roa50LnuMjP9dY0o2FkQl+ybvP9ZPT4TcvvW+5kREhj60U/gYHv2j6sWH8NtB/pw+H2xfB8uy7PUytt/S+0b/uPKjpswB5A4ZQkc/egPeGEG/ed6qEeraZP2/AGgz5af4Z17Pf69gcMaTkgtmQhivcfDtFzqMPhJrY8udXdvMAkyafWjH2dbh2mDxMt8bSXUk6Dm/OT3hWf/Z/1yedx34oLlrB8gPkhX4RC3WnrsGEZA+qrno3ea0Ue2/+w80RLBuxHpB/NyWORsEdav7225xGz7vVmcY3bPtIpkb5ZidmKH4Y1V3JyJZJXIrcMNF5OwrVw7ExZ4SbQtgou6SEVnz4TYLIDl1WV3NBxV3NeCaBsm8QcW/wuYqp9t8HUrRzvMuFxaA07UMt6XgUWAk5Z6w3I8Wtsp9cGHL6fTUCyfHg01ZgPLPa6uu2YYulbblPLv6k7QPTvnPC77xWN9qScTdJwu/ujMeRK2ym2J0Yk21i+jPfgjPgm+FdSzH7iqhUN2xJmtrCtqnEVwS4lujKVAQUS9pTrS68o5l+Ab8PYD2LkoyyyFKn79sLtnohPC8/xaLE/MhrIVp3pJ72VeXIq8TMXgU6t/nfVf/85PMDviPPXWKnYTfm42BA5jEDd7FPaETjCaANmTvlVLDrSIGu7twYHXtlW0Zp3MxHJlvYg5af2iHwZzLvgyvL+5RsRqZz+oGkj2nfWVMtfWE3mPE7F9XOpV9emgec5w3dLgLw9NukBJF2aRvMv9qaIx2tO19UDPPrFs6xWOXcLBqXUu9uG9Yw256JTb0oIwhlAjDv8tDwD4EX0JCzFRkPqlOvfamf2WAz7O598zttuvvwrJMBKXrPx1PZL7xhuVh4V8nFgdaF7PzEUatXq/MHYqz7FwPP8wEJpgIKVN+2+wlGnn08+erYzR02C3tKrOIi+W64YQfmHfIhfBxBtJrB64tjtWtJcJh1JfgRV397fP2EI+za5a6ZBVua/6X4P5NpwdqE9Lo040O9t8+JVlLVcScqkT/IiW7tOuin5oDwiTRyYbwiVDLFl6gWWXcHAzUiovLWUaAypzxWwIEO3qHafP3P2KbKX10vj5L+O2z4jbxwC2gdApBcnYGAhzd1XJ1de+UQZu29JN9E5Li0nZjz6zLGLLj2Vb1QBog6WCdrz3addWvg323cuOqu8cQyZy/0QoU9kW7dn2kz6yPCDm4+3s/Xv0qYLB+oBbNXYkvSLRu4LP3pdTBhgRu46KrWFPvLVOa2SoJ/Woe3GOx/iuSjjQZ/IJcvzaUkMPrO3ZzunTUikcRs5Ewb111DWslWYMZs+WOiK5tScaA/7dHGw6NojOdks4gXf1MM43GRI9jcj66t65vto2mxm7yt/xjZUn3NfzC/3zDWD24MLWZ+fcOQ5bk/tw0rYPk/9ssFUNML8Oe/ZT6qn6ztXvjF/fn+P0bH92MOgrd1D8YD4WlnB2d4nBVNmvzDZmBrfAugAAIABJREFUZSylbLk877iBbDE8/MApvQzGXsswga8l7lwTW+MIOF97qOoneRg0uVuWQEzgdq/2dgkHbid6ahYD1+51uC+dQKwJB+LpEaVG94jP0/bkXh3t9h6D6ePThHTL1FXP6Gp95l3+3vruaVWGD9K8rMZqyPwj1F327I2QqNvvbGQ7E7atbAZRr22DwdIyfJ0Gebm8lvPx4fXZypJSP0zKlYDM9jBwN5z3+g4m/u92ov4KGuyl1Eejj+Fd/2dlyu8MTusTxspnZhtqK+kVnqNQzpznVqJEvj3DblmhQRhNij462pAPPi6pJ/L8XNCTF+gu4TDcSIQr6JiRrCFlLGMAL3UMxhFX9lKrXViPAjL3goGts4+2WMOBaHfwx5hMmT5DbKc8Yzory392drjd6DkiPPXN4amlDmSchPX9TYDL2rbnMu0sn3K8c7QrBJmVt9Tq89NO3xleeM81dNhXuBJwL7z3+p6bxZ6ajRSfBp+l2rYnvAxev78Gn6WUUR+KU6EGTOmXIOu1P/0qx7JrPEgFIyXarOGE1PBgKXmu/4ncORqp9rAXHG3CgcZ+vYSFePfRWZiJhgwAh2B3xwOu0GoF7ctW1tnPrnt1uvwe2Akh5xxvHJIVkV6fO0liyhlO/BT83FyPZLzB3nv/ZlEOa+Uh+EqDXGniwQw8lleGcy/h4PfFf676zjGdwwPawx0juCH3b3kJ/v63FcstI7svwynTye8zfee/lfFhRzh8aZIdllRazXPPc2UePMh/tcu0WvLeZpyf7fFpVX52dErUXvbaMkuL7v3OhQPqG2uvr08XTjSVlWfMBxPg+YjXIDNjL2uYgyDgnHyTHSx7fbXz0d4q4VDGD//zgVJzuOnVMtxLP4mD+OICuxPF3n3eXgchZTCakLABY/mk3d755ey5W3newRsvLcZ67qQvfKFb66flmTnnvr9fmMvCARixkb21HuZHqXvB/1EsA34JJvPiQqQX9lYtvYxuhjd8lrg4yRwTO/WrTTh8cOYw1B26rZfNAp56YhWDaJCLWvvFiUgPEOGVtpcU6gTAUcpfCBO5nYhBHcKJ2UB0/a/GEWVYUtwwwonTqG+qNXjCW/WeMQ6LGQ08YVQhHHSgZvk8G+18+HO6enWWmcmvJy+f84GDxeq0skQ80isF+6Q10f+pBoGLPZdqDwYfZns2WIxurv/OqHzPeKj3qRwl/jsILAgHNKuxnUQemGjfkrf+G2182n1mHO2uu2EyFw4cx+Y6eazrPnJ9VczyQTJbecy0VTEODtLJo/ANJyxfWsL2QGSrdpXU+l5OQbyPI/1P7Mnl3mJP7qffHKLhlKUN8jIs5f82KPx8zSttV1offCayb7q9szJ+O1b+6uHQHVTro3Bg+feTBbsLxNHHYKhKra9+v9BqcNr65VIojdJJzv3Q4qiV5Yj+r88EX+aeVcOF0cLvv70jTiZni/iuU19y4cCWEdtjZojUijtoDiD9s2ORXhzTF7XxiOxwwHzcBP0pC6vv9Z8+G5LLuOG/5aHy3zka6u3c/RacxBqwJYUNSIPJiE5qsBhcnfLsGyvXqS6rjzbtG79OgyXP0x2NWC806sZ8nZiyUz74RBuxO1Z9WOzZYCG1flmewldL1SB3ahsDeu/egp1gOir5jMOZkHtcip2Lcv/b6FtL5Adz7oLiTn3IhcNsmMqjU4Vw8BHahngIX0vkxXm0BqROZ8nTqdGjmo99YC1patwCDFZt6ru3hae4KanhxQCKhWjSamvoIpUPggPCnbFehB5VMJTp5DODwleC2cr3klp7flnL26U5ZcKB4CVsjR+kr9XfOKe1l5c40u12lXx4eFZYaN/rq8Jpgq3mrk9gMjzKrv3V/e9sQGRZT2iFp/VqiPadC6NTGz/UEvnadKRXRXZqKxcOI42msA5hZlIkZwzoI98aQTig4naq9Djns357e5MISC7giDEWiDXkGh4szy+Dd97MITjVwMifGXWaAzSxtg2mKjr573iuGjDAbuWsH35d9mx9tv+klsf3Voc9w0cPTUbCNmS/+YG7K3GP9mE3uKx9UuuP5VHm5tFYbz7v1w5Sv/t20PoQDvzeWS/OohhOfDpZHiuE+yciGWl03nJW4QDjfbyTtkXgMcRaZaTWyGW1hjT6tnffWRoeFFFn8x3aEIZJtChck63PVXgwpstnzhpaQyBB2n+Pu/T0ablmyBlLfViqng1m4LP3Olj82TSbXXcJjJI9wr63Ou0/qeX57dh7TroSNaxxCMKBa+h+4S2xrM1yuhu+RL48HcvyeQrocjZ82eu3GMEvIh6lR/vdeECYO3+mj7d7EA7/2eaCFaRxxc08XkM0etso9xX2f0boFQGHWi7z6X9lOZKr6t4yq2IwGQGckEjkngkiJPX//gCEN0Fs9Wh5iRZGeBVQHoz5/27ls3cmOOwb+mV5NvDb2inVaXjwUwx/19cD2U77zycI8IkwVeFj/GpwdoSdk4nDkby2mi35Bmg57I8HwixceSp0y6uMTlW0Qzhw58UHhMXrYPPLNYd/b6dyhZ7wy2ZLb2agcpBvBLh3rH/usX7HjtIzx6tZZpmBVgdOhhPDg+HEpdwdEGocgn73A/vFeuKidZdpoYQ3WnVIDc584Hjl8jwEi9c/vrG2KGPvDA9+nbwv/xBkVw8FsnUIwgH8buW2IcevPjzVsCdy15ll83hw8Jus+k3Xw6gvOXOa9abh9h0tw4fR0OHKxSd5H2e1XoTDVd7Z+TamyWYkKiWfvfZBsvSWicTa7d9biXx6bLdw8AeBIjsbVAyGb88SS6D/hi6Ew2YSyyWZEY4BarTw4Sk/5/BlMJbf239lHq9OEwD23k/1XYkf/Pf2jFC95rA0h9NE1k71Pgq2nWnT+mrt+6kbFI6eH2+7OKBlmg/Kf2J8cHze7789G44cfQl0HMm/exEOH26nQlBSVdM8TcFJmXbN4cZ6KEioQUGo3w9UVu7kdCcBmZXaZybHaN5MmuPK3WD17y2iIvUXNwgHYldepj4OzjuySjjoIPc0vCraGaP4qX6XCZCcgSq0Ab6pqtPHCe9dOXdV284haA4EgvkXgX2zm9Z8uHb1K4c5C5m2QNRzBHj/lzs+H52v560k1ZiTPh7suZ12HH0I5cPtzvaxfFlR28GWUNgcjMhWsZ9eWotlMR7M3QqEw0jDxZZk9rPBQv/BiT9z+jMsZZnFnpkLZCPpjPCDMk3z9OlMXWzfpvLpYvB1o51f3p7tu7a+dRAO9o2fGo7a8FFLBC/E4BAMkiwp0NIQ3N36anBRRn/ckjURy5jGnBhM4TC2gwNf4Qjl08l/xibE5b6M+048mW9lYkgjcjEfGTL9ynguZohE/rYWdKy0U2PHIR9PUTzHEID02XCR9z1Tvy2f1JVzbrlXDQVSa/RfOLAufGCiMJCWaePDajD5ZcijDx3fdeiXX0enZ8MNdVv9bHc/NsVdH/0fhP8zT1FvKWSwGSz8N3gsj5TI3L+zKNMd1trHgU+rYWzpPZ964nQP4c5k9uBkJJNBD8JhMUrlm9PtobUMuTnBcwaL5fFpd9qQmbYa0KO1RdkLjPRlPkzlYS5C8Y6sw2g+gxk+DD/GmMqQNUKbBbqb02/cPDeP8G43/lXBYPD473imD6T23lL/nb0ntZ/2q8O3vDPctJdP5GcL3B7VP/4AnyzZvjZl91rs7o/BYn3z4XPvOHQUyvwxCGPYC89aGXDDxMYN4eUJ3uhCanihzHdmnZez1VFOc82B6D2ES/PDjlGZrypaxaQ3nVnvTTS467G/6+sygOfyP958xB/kWjSQ5/e36rmKEfnu8lqgsf76jZu/rIXCDdM+katgMFi7vbMyfqrlMz8Ho7215b/zv7FnK085900k72xguO6fcKCu+k7nk7MGS7cU+txQj/SYM8a7c8lfh9UWWiUbBFxVybF2nxbgwmhntCQPzfgni5HaXzrBlQsHEP/WGhfbujsfqUAb8WYcq5z0sroLZMLV84Ni3CFs/De56Tk7lUk/rc9VDKdIz8pYWdU4ThFZCtfhzipbJ4J0y58OXBThYgAWs3Yv8BlNy30y2K0/Vo6Jwcr676raopyVIb11JJSZPvt8cAM4gYWq2rc864ullm+pal6nEo12th73f/nXjX6H8c55RnL1X1Oenovk8nrm4eztUBltSA0PNw/H8re1Hk9lopZw3dv9BOcszZpa+S5GIXQXWyHdGzgMhBxWnfWdWK7lrgNjdK/PhlQ/1XLZtp4Z84wAlw2F8rHipn/LK2JHEnl4L0OcD6PRDljJN5iryhjsvLPv/Dz/m07P+t1QIt+acdGg+rW0YgJCE7nCOzVcBYPRwRdsbeVYltVSva8Ueh8WL52rehEO3Er37gZX/xVjV/HgCYN2HHBjWSxjeolPZ80u1xxAPl54z8zQQPv9ghDcfjRig4eQYF+fCWUxPN4CAvUfzem5uSyWg9ffqsHhBkCBE8ONpeAI9fXRiYa6UvdrgKAG/36VSNntW85thLeBXeqD9cMXDtYPy7MyCj90rhCOlLVybd9njIjmdGU9kj+vxWpv6EffoQ83fH9psrtB1uAGLvt1wg08/tMFs5v1T4CfK6Fg7YDf+TCWr2m4+iJSVpVw8Mftc3PcVNY9SFMuHGiMhv66HssNnr9DGbn8t0ZghKu4tnwp1IaO6wnNVitV5ruWi0JKBr+O/a8YOH5ZhMN19Vj+vt4/uwyXrhCS/r5x7pF0bu42UP22qwa7vbd3/NfB7Wk+fl32zs/jG5/prC4/D57gAteJPm4Xwpd/XI3kes+vwfqz39T6xW7KLSORhAlX+R1X4dDSaFu/WgrlStWoWFLsXlYYjqAXp3qvG4nUtgZeu5kE2oQDAmIlTuW+sex23w5qiTKFzRQYeIYD+ddm1FNEW5N4RylttlL5/Up2B0QH4eD32QZFeeAYEUid6p/Ilya4MKU/a1tUyKDZlJeW0B4yw1MmrGlTGd+bNavgM9jz8tna1L7lvb0jz/KtrnKe/bf3BAv6xVKklvN+0XgtSuXhM9tu/nKX9owmpNY+sJd/Vs76VWhEiby9fnwDFhH/knF3jXfswfBAajjy8xAe944FgrPUXvTZJRyQJr9d4dARVvF2i73foM9EF2Tx8Ee4zbfJRaid1zF7AXQ+3u8kBGhx91YYY1lfDbGOwbJ7K7K7Q+2dMZ19w38rz9Hvv6y7syj9wAt1cM/GA5ltSDUIb0DTrg9XuT8OrkIAWHm+0XeZRmR1WD5pVZ7V72asRD4/EbmLbfrAA/SVYDEsUa7DtT+zhRksqrFkmk8BW/tuTkELr8+e1nf/eGPfd0ieDx712wQvBIPmfhnV8vX0cKFJFrhwNDV8YYy9ciiRN9Z6i1JWKRzWE3eVO6pXQfx25vHzHQFiuXdsR0Z2Mg3imKhqIPrdjUC4pdmQmjOUx0TkwZz87I5MX3jybTEjebNXjaC9kSz2aV+dbSsGDAFlrhsuBkyZHuX/HeGzGcZbXvjLBKvHBIf93526GBivr2b2p7MUDvQT2syynmYHyfOG9IWCPRvtOOOCxd4ESRnOMh4uGork1Lad1Dwey4skTWVom2jchb+H0cfw4fc7f1dL5AtjDWkkRMHau6+VwgHjHPcwXqGXdRYek9qIN4P4ALjtv1ivintvI5J0D2OHLwnP1zPMFzVT+ca0U9PpX8FkhdS1ftLHa+uRPD4TZLEvCuGpTFf63vKuG451zYyTCm32o7/rSSrfyy4fMiFFe/bLYfby/P7Ze1KDM2eiDv2A8fzv7Bnt5dKhWO/o6FdcRkebpry+QlzEYnudNo0P/dT6TQBaLjvGFmZ4MThJta+e0GcN/sQsl7z0/6h9P+js1wFO4CF8cW4fzXxeLOZINjkZTqyvjrYcA2AbPJKhbXxPegsIvVs4ILFPn1YgnptlZiqcKmjIR3TVM8gmhuLf11h39mcg+Ajq5zPIHmvEctuos/Kq1O3QR2W+WiIPTnCDVaRbdd3u1zQJ7uqM9dZxgsj0SzggwKeDVOs1d9ky4xuDdOuXT0MTDn6e1Wn98d/l9ddi+cpUKAtR/y42Qm0GX1+Y2O2tWoaB/w72RJ6cDWWYZVeH76w/pAp/LZFbR4iijsZzdJ2i1N6UNuWttUgPTKEhWR+K/heTm/YtFxhchh3Jjxf3d5p6l3CwwYcVcyFKNZSUM661N0zjOQBtMw2zqbsW7bfLkW6PMiD6NSgMvn6keJURtBX7ivXFRzh5JolJ8cvnfoAwTeWjLe6qZEuxHQ9WnnrsB/4o++ZqJFHaHwY055fxMzeNfXbMbcEiJKzNNvpkRkfLs5SywEtKnn1rfchTzw7hl6dftPn58VCmM8EHXP2gDRodWgMGTtMAcngyuK0fpExKXOQ8uuPuy/gRlyPXPZ+VDn1kd4pLnDBII3D7AXs/62CWB67tJJVXl0PdYXFLrOxQYId+5biCdrVEHp4KhPB6+wm10FE4sC0JUP/bieWmEaS3YyCfIMZQzCr+e4CHWFfUY3l+PpTVI+kHQUwADgc5V2kffr+PimRdj7uwWv/ZdNIX78dvzuy4a9WygWWzK6lfB3UzkD471pClsD+ON7omV/tDqneHfG4cWHYb47TtbsKhRDvg9vthz4Yf/a/9ZTaK5aGJQGNm7ofp9ho8TEzEa7gls6nkbfuwlfiRAfD92W1JmonefcktULePuSDBBrNPE6Or5ukhsbgnC/5esPf7fdpy95VwxaDeRKd2L8df3fpldOM+0DtGQ42qznjutnVZhr2LcHAGoThtyptroUplnSkqmMlHuj3bgAC4B8YCWc1UzqMgnZndYOZ3N1HRimPqBntVilr22GSg+8qKZA0FzvZauztvG9N5Ut0RkuveXYg9dnXKxDjof1TwpSiVB7NDNwaDzzwmJGygVfXRz7PyBZM5oUEZhD+C4StTgSxG7ipEhNVB4fe/Y1s5baXy4nwg/1faLTP4/H5ZX68YCmQzZmngZlpuc+JWJzQbeDDvR0YT+871J9XLnD7a6s+Ws9+fgz7Dn/yIAHbH2E61sbskIA0/pIajq4ZCvdkrUcGwPxrtKRxgYvy2f7wYquebm50KQ5wPkD3DWPZTImBBHgrljdVAljMh4ZYa+wP2oIguf0fbjQQGDDW6koOxfba3vlh63XAib6wyEApjDicEX1wIMku6m7Wr6soHGkahoUDmg/2t/crwl//THwQWPiovLIRyw0gkF9Wd9gY82n7GMDxbnzql7bSzpZUzauFrcPOwu+qPswlOUPaPjqz72fG6pBbozWEGiw+rMT55bskRyytLxbLA4aMpLGs5K6STGv3Pfjk+PD7FLfuni84/g+/LOD7s/7RpP/hqMUz0+PXFGlS4/ZoEHxflZ8MXmjsxUOkT1yj6fNtrX7oKB6sEoLlMhLsKL6/tfWJRke+pskqUOjcNxfLV6UAI1cUaqt+MZfDuldIf1upfmtw7KIYh/56xWLcj/bqBnxmbiDrdtCofHzx/azqQsI+HsmyJQb+wafxtLZKHp9xu04W19mUC7VufOqX+4HNlnKbADsCjE5H8c82d5qO9032yMTi8IrQTNW66dbWDvQyzDx/LiXvGmHS8i3uBqXVavTTvyRz6rK9GC6tT61JedRHHZ9QweX6EQ7PZVIc5rql7dDKQS9mJ0CVtNR6sT37qxhq3nUfy/flQbztXOh1As+tZONAAe/VPzTZ028qIB5L9H4B2/u/2n28bieSF+VAHKOf9Dwq8P1D388ygxk38Wu/qMB/Bfh+49xKjFfCW19XAzXkHrgVkKw9CGtMZDvy6LI/r2Nju5ft+9p26nMB1WsTvVkL55iwedJHgqEZfnCZRGC4NJkuBV1VxNTZCr1iPOH97JpLXV4rDVM4g2k+NAf+NpnAs3a5kNJhIffpYPnmsw9/osDOGXejpOfi10HTtW0v9wXfjSCR/yxzW9sNPZ1sWmsFHozuR/GAulFtsqZvZkGzAGx4M9nIKPtAYLkQwzMVqUzsbHutJOJzWGQLGa6qAcAeUPGOPJ918IlY9O6GSaMyEz0+6OwtZV50tgvfzPXENvz+PBtRZczCCXKDHt2MZ3nGD2W9HZ+xWS+ZC5xnoCwdluhJTW51sQ3GICDtMX4XD6cLghOGJ9ftSmMg/12N5eSnWbcEr2f8/5S7j9QeGD/tFtUiuroXy0GQgv1yK5d2NWJbNttBXTaEQLuABhycuwuFQVBXvlPPQGh6ZDGUhrPZRgF/f3wzlimw3yv/eaOHj4OKhWNjlQA336XzYz+txLD9bCOT+Sedvc4F6J7dPND59qmA3wYFg+PFioEtM+u8MkAfThHoTDplKYlIIY8+Li+xguPWcL8EUcG99x38D3CeOCYmr65HeDvzmaiBBk8HSP0ehKqJSP1u0nx0vbo8yuAx2/ud9qiVy93goGpS0Yi0KTnj3+ipbm9nywvve6vbrZKuX4KhsTaFKVsHZjzylV9MJdRie+Aq1naZ8uJXKG+uRvLwUydPzkToBEQvg5eVI8wk2TGxBhB7xOmAyZbSK/vcDTurg2DGX23JBs3nmQoMq/lE66b0Ykfx5ldOf1TxD/+k3rvHwm1+X0dcXDiwNcf+e6yBs+tVXN46auiXOFirh/zjJ6mb9wunQeMdgJSVP+59pqfYO2C8bivTczZbagqpxsp8+7Es46PpSDXLOoPeH1SxqkjdDtiE70yisU9ZZN1BAQvYjetIQ3pWRvLOOr/vhaRJ4brJLcXEm2HyYFHavLw7OWP640siWAMVMZ0h2hHY+IbhJm/HLr7f6OZF7z1yZPhkcXl91B0EHtBm7nDHV1Fh2oqI00RO1UZpKnKa5p6D1S9NMI+mXD4Phzk+5lo2rBMEfg8ThvnqtrYNjKNFQhWxHA2P1iWDX75cX3LKqir5t/JoNMK4lIMK1D18/n5lM/rEeqTfxJXh/anQvMyAXS6BqvimEg71nfHH46o21QAJseZm35362Lav6tz/hkGsQbBed1hnz7+uh+kEwG7rB3r4+pAMm6boRXAUIZzlOxXok+b/bke4oQCRH/N0Ds6pDe+WFaeIuG83W1DCHCa8q5rmqFshODxGDmFn/su6OFdvM5xNvVzuc0ahF8vJCKAzMfvZxLxzYe5gnN2aqZ2yxLLEyh53Sb64CwKrOcsJoYbirStlGxT7wj8xusxeMxDu45FT72Rm/Xtp0tHc2sRfncd7rj3CwpScnKDng9+GZAEB3c8iPvmZCwee7HJZsYvXhtGcbT//HeKnFcttIqKdLVYOCpn3S8A4kHCCG20926iDego9kwSZUQJRPz2XIp+PaeU/t5r91uniPoInknrGG/HUjlvGdWNVbOu3/9mKKqvcrUSo3jrgTmApLB+GgsNQSDRbb6mEWAS4CknxjuqHHqa1PpNqO12eb+RAid43G8sHW4N8gVkULZxdpyftbsdzK1fEeL/j4Kz8T7IZwfoSN62Ug4DfxaBY0GP40mlh7Pn14xzX2bLlXwdxLns+jxGYlBge+QneMNLLlTbt2UCkcsknV7ztwOlhZIiUa9Ae39VPb2anfA+xIdOvPwYVDdgbDEMH69Nm5UK6uu5NiRgDtuGewZGD474xAfp46rWSaCEaiu0ZD+flSJP/ZjAV7x9loE39bLwyRiuhOwqGWaBDOf+vstPfZd52FWy15f9Nd5uIT1Z5N4ltfldi1WL43Gwgh4Hph9G7EPG7v0LY240S+OdPb+QnDI3c8fsxJyh53e2iH7V0MrSYcfFpYvZay5f7vzYN7snKIi+XOvzcj+dliKJ/WyQiBYNr13sLBHxcGl/KrCo1YbhwO1bUAIeb45mBGx248c2DhUK4UZ6kG/vCrkXxh0l2sYcsMHQS56lYIB8tv67wnSAxBGhRU1adIvjsXy2srobrssvVlDLLn1lpW9rFpF0XJ2q5KgQeV766RUK2++xm0nLt4djYLD85Oh6cxlJ+1nSF31JkYgP0M416mz1H8j3GYtTfbkQxWw4/xQzl1J39T+dF8Y1/BZGhnJU7kphFnmKTebsKBWfnpOYLAdFfR7b2lCIXpMJVXl0J5Yi6bJAi5mMVboH/lPvHf+l1OrazlA5fudE05+wK8Rt8Oi7Z9Ew4YKxmgzOqTYaIHlPBOY5BZJ331yfL8FCT4mgb/i/dO8mK8YTvu/olYvjUdyt/WQ9mKMcJAyM52CWWQyMU3VGL5GkPWbtEWBIvl+blQlzO6ldujygYcaFHXs3MBY1QIu3Y8uH4RnWct3ltDOSxGOB/1ogXewYC1Y8ceTXxa2DPlOCewotuqvc+UrPujZkuenGNicNuk3YQDPiE3DgdqC8F42wk3CAVsCXiKsmx4fDqSe8/sdlxRs108pymgMWh7bfzs87YTEO18Ubx3woHrFiP5ySITIzs0TtM8W6Njp76R3z/hkBsrnbTlyjLWkveNZyHnzFPPpHaW+gLAIaFdkhpjWAqDKDOpMYYQdbHcPR7JM/MNqTc49ejULIQB24TN7E5E7AZ/WXXBUYwxjGD239ogxSf97Y392wJgGAQEjlEXZkYw65e1V/5PPssn9rqBmzq6Ee24v0PLZNA9M9fIfU3ACYODFPwbrnjWd+TXQvmb3oWxfxzR3l/XMXq62BBlGvi01y3FWqw+EixJwLezsblLdaAPnqgc3X/qzAVGXCtH1HJdNmT8acsXq9fas/+ku/rIRFIWIBotO9GTrx9uJWooBX/ngkf6Lhx8xqUD7A78ZnlHL3rxZ1F7NmbwkdbLcztinYEGglw9tCMvzAUaETtN8f13xGXAPjbVbog0GCz12/3imXgAE2fhSsuM8uBE50NZyvCeVsGMhlPW2E4k6YBe8mq8QSSrDzYs0rebyQ0fxg9Kk2yg2LtvTAcSpAfTruDFST3eXqJJxYBU3qqn8sRMIGaM5ntma2btZ2d25Mqa00KcN2m7d6zPR92erR3KWB93CYehUF5fccuocyEQjEakhyscTOKeuRZ8JUr0GrPHVecUAAAgAElEQVRrhpHcZpgp1n4+M1Qh1JBnzOOXAaHmGuyQi6oey60jDfnJQiD1nUhGGpEacfx2quo0zeSH85FsxAc3EjJT1bZDuXoIx6h2jz8fBuuHMspQIvePNXTLyyfSoD2D17t1/c+g2Pv8ADThZvf6dqTOUgfBBwOLZQxHn1lW+jO78YHSJdNeyLtheEdmg0iPO/9oIZBPjbgj+m7tTx2FVsO3/Dd6llOlr00GHcopHLoMRxOJ5DszoaxF3NruNIVuy+aD4GSvbw5VOFjjqgY1W5KkLbUys/1y80gsRFIC0e7nBIUhHOTas6WdCKBIzWYAJxyKeI/qIl0jYG4jOzNQqG76XdZO3l4tkWuGInlrPVFf/4NKa77bTlOBqTh3kdfvqZPWL9454ZBqfMrfLceSDODygvUxYc5+tcTNTAVOTFiCA3ACPhy+3BKSmJ1Y/VmqdrMBGL9VpdADP4A/rUXChUMInKKdAv9tPFaL5Zo624+ZUTEzLBqcBqvPR34ez/Yz+tq31rbfTyKK3zQSCUbz2k6sgW+J54BPUVWfDjvvnAgHZ6x0BkMdNEmqN/R8dy7S478YgHIkehJYEWrSNksN+e3IbV+vFu/cDFEQpmCIokzBjI5JE/XUY2/aGSIPtv6nn/wmGoQCb7d1OIaohhlByT47QXYOOhAOm2kOWj9LvP9s4RlYGKqhpwmHMk1Uq6gRaZslXnaKt0fD8C4YM8/e+k4in/Ha99s0WIzHbOJSOLJJzDSOKpiNX336ajmPp/327PmCWqyBbZ6aC+W9zUh2cruZEwrq6XrQfp/Fd+dGOHgA2qCBUXAaIljmDxdiVRtR9zAGGXFIjWAmce1dMeB3axyG9DYilWal/J03a2tb2dXk2BtwJ2aAAqsZCoG/190LyobNpry67E6AwlgGP6n92mFx0a2/Oxvp7oXhaxezezg96u9cH5p60Ow7M5FcSvCVEt4NL2XaXTccaVyDTmdbqvpuOLPUaIgRcXgnFuxJpjkYX+U08DTQMn2q/uffWX+8i4itvJ+69jKj+hAX6wR6gfU765FGooLXgBfYq/p2LvPOuXCgc+ayyyDj5CCXvnBP569XYrlVQ4P1uEY3rcJTRX3mygnXQXJDNJPspErEWiIcBsPPnxOC354J5ffLgUwFxCaMJc0Oh/VCJHOMIubDN6a73w6tgyVnzETDzr+1FuplvEeBUXrpb6cywI+LOEerOT6uM3IPtGPZyfYgIeN0oPdoqKUsBmFiQ2CE/N1yQ749HciDk7HcMx7L1XXnugx/+BpAmR/KvNTpf067rE+dyln9LFPuGA3kN8uRcF8n5yH0LAdCIXN/Ptf2hSranRfh4AMCIZ1kb0nQ5NhuKn9cDeV2dTWFiGgGhWebIV4Hcom4SqR8vVqsI62sfWup5VtKvlNlnWTnGQbFSefGES4O5m6OQLfg3t4IZDmOJW4SmizJLvNputR8LrK1IjslHHu+eYSB0S74qmFhZo3lwTM3SnMwCxz5ODtuz8DP8upzZ5YHavDNNKhdA9PT7vARuWk4kv94ruU2qRi/mEbXPHPyksN6BCTivAUxR+4fCzWq+A2jCHtn33L+Bs7GpY51Fdqb8QJpFT+RbzSz1P9m13e6tZnZwIZi+fRIQyNIM2E4bcjxDH06anQ978LBRwjS0u0nN3XG/N9OKPeOYkisHlRKiGy2hVAmwXkuvzNC7jfdVSfCKt/LTtXh5ebhQL45vaM3CbHVFaSJGr/0FKvu2LQkbqV6NPrSHmIVFLAn6vSCf76Pp+P23Ehb8oMzwX3Am4//XcKhTcOL5Jm5IDMKF2tvolJzpmI6jOVPq6F8Y3JHbh5uaBhCZzgsPBJNQwGf1q7h1s+zd+W0O3xFnd2+c3aLSD4/3tAbqjCKoi1XnyI9P4bHTvx0pITDbiBb6sTEdtKP5wP57Fgo140Qbo7TaG79rgQ0FdVPPYYoE68bg3R652YRZ+CkjLMfuP/YSfSXXSHI7gRenHeNNPQg1ivLkRqa/rIeakzDMjz+/7b+sMQZClXrYJbcjZ+jxUxV8KEu/3MjlEvxC1At0Alu+tzW1xLt2DF6byMWokj/ZiVSPN450pArCejLsoADVNm9po4ebrAqnTRAj6ONtpNNHD6e7bkNhi48Y+W7pY5HUuEY9g0jLGECeflM7FVOheKQhwblPBqPnpZQRbsjLhwc86OWg9yNJBEOTj0xE8nnJ9wt1qjfRM5Rrza1KBfqoDFNVQohyYfY5ff+O2OGqjz7zpgCRrM6mTFUhUZTUC83lhPFWte+9VPa8uvSWaeWyH0T7sIYAq/EWeAVZ7jKGC4zYBnzadq2frV98qrUaWtOa6t67+VlWlBef9auGdDMmMaZF7YsgXcqiPSSI6dtuf7lOCoJhLzv6rfilgIOh24pQB1uJnb17Id21G209L/L2wSWUpmq8ga7o5sTQI7Wsd5e/YUpLtaJ5J0NF+pevXTPkUdj1QA/m7xjIRzooK03YUycQpDGf16N5PnFSL505rYlIu269Wwx4NtmhRIj+oRXBrH3XRjE/4ZnYyyeYRZfODjNohA8RXmnWlt5g9GYrlyXlhuK5CszofxwPpYfLyby8lIiv1jiNutQXlmK5NWVSK/be3MtVuH5zkYo/96KNZAvht6xHRdUZiZIZO7M+RIuN2F9zrp3MU5lyf9l7+eiVKaDRG0ebOsObSfy8U4sH2zG8s5GpKcc31yN5Q8rsby6Esuvl2INKffzpUReWorlxcVYfjAfuXD53i4N/bOf9V1TL9/hCkEAjguBcEE91YnAvnfl2jUQ/123Z6M5ZXJalGDwv7cyRicHM/aMUB6eCjW8HAZkTknmTktmQMX2dJ58FT4RwqHcST07oe7ZzE6J/H0jkZ8vu20qwpojKNAq8jsLKpjADbxiAFcx6S4GyeohvywcqC9nHu+95fnv7dnS7nWhGbkr+1hOsazCUMryBQchLg+6ZjgUbvTGiebWkVDuHIvV5/9zE7E8MBnLFyYTeWgykUemEnlkOpEv579YvjxtP5f/6LQrR/kvTibywEQi945HeoblztFIbh0N1T+FG565fxGDLXAQyBW4nAess834M72PBxucpGUctOVlMzpl7Jt8QJe/LV0mtCftKrYd/bq1vUxgaD/gqRp9jTQG6C9XYvnHZiJTYaJb1mYgLfPqcf1/bDSH3Qh2YdFNxUW1baT4vify0XYif1iN5YuTga5PGfTGmL4AUIbr8M5nLHveVT5jWHvvp9rOPrQRn/H9enh2TNpuzAMWhUff44JsM2xhFzHm9vtcrrv3/27Q20xuNhcEgQkD4LH6rO12ON1766sPl/bF8OUNWspYvfYdbVj5qncGg59aeeog36/LL+e/8+FD+H1pMtSdNPhrNkg05qkuqSyMnmoKx8OesHs87bZfHWPhsLszCAqIhQSPWy35y3qsodiUMTKG4NkYyp6VUbxZKGcQryx5Vr78fZm5ymWtfFU5y7O67Vtgsu/8d1beYLbUylhq9dh/Uvu2nPLOb8/q9FP73h8wfj1WB99Utc37vA7aM0FgAzV7r216wsG+I9+e/foNxvI7K28w2ntS/3t776d+WSuPhsSJUHVrz06VOuPibj7sZeAdhzIDJRx8hHN+n+jKFn7emMhnAnvOZ8PsQI5bkjBgCou3MYx9Q9otz39nz6SdvrN6rWyZucvfWX8ste/LqdVnbZffW71+e1ann9r3lmf1Wn38t3eWZ3Xbt5Zv5fI0Wzrw3vKsrNVBfrkev7z/TmHxNA7+q6aT+xxktMu2pMu7Hq58O63go18vH/2b4/0xcLbPAyscttKWPDZduMn6zFZ+xjZx+2hD7p8I5Q62S3GawZXbDyvmMbB9X8XImufNipQtM2un2ZeyB31nMJVTaxu4yu8O+t/qJN2rjioc+d9YXYcJH3XrblYt0tB/1w/HcucYthRO7jr7FDDlsGT0y/NUaCXqLbvZp8CzZztwz8X3AykcMFYux025rUR4Y2ZS/8cWGR6Pm2mq7qzcJfDsXCTfmOGSlVhuH+EUoXPEsq01DINO42j3eFQGK82Almdt+gPG8khhxq7CIYPbmNa+/f/tXfmfG8Wx/0sDBIxtbGwSCHFiDCQh5pEHDjFn8oCEKy+EMwFirgDhSAgvHOa0pNXe931Imume0bqev1VdmtbsSKtd7y7SrH7Qp0dzdldXf7u6ug789396Xkt8T9/v36fHep/eo/9xXY/T1zZ7p75b26rv8d+px+l79Fv6Dn1Wz/v//XOq+0C/AAww28PeBNm2fzVu6cEJS09MhfT3hZDK1YjW4pjeWag1jLPwLq0Lyub6RXTbcEizZuuBZvZiIO/GN3IJDrBAK1ehb4DkIIOXO91by/prXkR9QrZo8X4TQxVsR1WjmLD9h63BVxdC+vMsrPYs3TNm6Mdl5A0N6QqYdqcs/5Sp06VfB73GDOmJwO3AQZ9Bqe/SwZF1rdN3tatDu2v+N9sd6zt0wGnd/Wca93iztl7XayhxrtF3jm4C2MgNCpPpkM6MIzKYpWdnDZ2DAdqK5dB9SHAj24zJ1vhUiF2W5gAw+l0t+fsIJFQKqXwpYAxsF3ZjMHbbO/MJDheRgQriorOk8wYTM6YymDsPl+BaSlxUU+5kN0QMe5BxHBmzirWIPl2N6J8rMb2+YOnxaRhmBXSsVKOrAUoXsO2lcSXE+InzVabyc4Lx9Adm9I+VObXO+t+/D/f759PX9DpKfQ9K/xm+5gEU/jc9l3EN79B7/HfpMb/Ta0/6neln9XqjdPoANnLDlrS6TBew5MO2bUB3job05IyhNxbRD9IfxWpEsyYmmJwj7bwoqKXkPk15s8JY6wTySKRogv8+vVRKhJUrTKC7bSDvRn3yCQ7rdXpkIok03Oho1QW4Uhnxj9NILJPqcN9wBT4fDW855znn/oP5ELpsJYoZNODqXarJdur7y5aemwvpntEq3TxQowNIK99BlvI0ozKTOqknfa3T/2irP+P6z+k1lP55HGddyzqXfk7rnPXO9L3p/w1JoBDQzeUKnRmt0gszIX2wZOnrasT0hSMXcmSC7mFDIoA1Z9rgSPsre1cBO1sIB5euA/779NKt4j9yEqL8bFe2A5VcggPMd28ZrLXu8MaMhj16Qx8uYTbYXhITBg0GCmeG7Pa8QXS26nQmxhBnDWd3Wmd9CKwN4Tj0+ESNTg/W6IelGl1zAf4HGz1QdaBlMrCb4bZ6reX9CqAZQKHPXC44YOcAIHmgGLDT1OnhGj0+VeN0boWKISQegrMWtqN5GeBoyss+tjTE4BQ7l0YgIbVGTEkG7Zif+2h9nW0XtG2blf81aiQi+Ra/s1k9uvF6LsFhJYK+AZLDRtHXX4eLwiqkoSAJRLsXnRSv43vC+AAytsuAL0I9ps9WAs5ArubXYFYVb7U9WibXYC0Z0fEycjPIDy7mcFLj3wDiQ0R0dAAJfCM6UsL6Of2zdHggavyuc/fjuWPud7yMbGGR/AYjOlaW72pdN9armf58neNlhPTlmiF4WMax+M2s15FeQCKGr7PXYvZMv9P9g2XjQM3yLgbaAZr67UiDxfFiSCupJehO16lb3pdLcPhqVbYwdVD5HdwMDhF7es5AA73NmWdbHcmirzo0QQyW6FIQiZGo5MnpkE2j04pOX8wFA2u7wNTIHYnQ6xOBpdGapcHAcqbsbyqWPluL6D+rMDG39N6yYYnl7YWQ3pqv0ZuNX5XeWgjo7YWA3lsM6cMlSx+tWPrPqqUvKpa+rlgqVmMaDiIar1lW1L67ZOgGTmMHe5D2Oy086AoxJ0x+dgap7GLxN3BtF98DJxHs6awsktyNA5LsCPVsJ6l9/4IEK95Wv+9puy4fXHMJDkjljoGFTtZBpLNB07mCZGruppkA27AwAT8zlkSO8uuugKfnpMSMZ+m/Rw0N1xCtShVwzeHtVDknSlZ37SKAEfoWvVe26nxFLOokvixyDTP8QMVy6H0oDFVy8GmrwMUlK2Zjth25bzykyXBvJbXNBvJqXKe7xxJwAE3RlqY2uP9QKgNYN3tnHq7nDhywLkV+A9mpSDqYB1VKqQem/vOMy2rVJagOCQZrbQQahX2FghykBp9ZtT0+SBwqyj4+1uwbvQBVMdepMk1n8eb7ARqzYUSPTobsgAQtvorjfv38Y47mVYjoxFBI5y8FmOVs0F0U+QgRyOBBirb49c46xj1/mOqDQ8+hI2ZAKLBuHKhusD3QQeR3+DVFQ28vGX6mm5AeAFGr19kFGjb9MgAFHHRW0/ag1DYBSI6ULMcmxPO7sVTCzsBLlwKYHBpolhgYrFQk9yQ21A3ggTwMr86H7L0IgOkmemPL880FZMNqNmhTuvolaPyLYeTRTO+KXL4Y3000QV1yJTlA9F222AdPgqr4HZs+hssxIg11G7NiUKNOyJ15/xj0D8mMxuDg2R34bRLgQIrAgL5eM6z03GmGO78qbto+YKkU00oncqAY0UMTAVskCmB1FziA1p+uiDWlT8+sY4DDoWLAILdROssXQOQMHC5SqYo9a1GQ+Z2rDIxzMohiOjVs6UK1ewO4YhdjNDBs9Yf6N+qeAgcFjMY9BUs/HaxxhqedAj4B3piOF5HfMpFWfBpnHV8F8+VySDNWdmh2Gqx24n2gUaES8zIONAQ9tS1KWz3HZcHSFKdKTNnGdMnSdCdognfkDBzW6YOlbFNYBgfX8dzhxZjNoBHtaKcG0E51ir4H4ICtTuT2gD4hS/GHtnB7YJ/gmBqzOuwlzowGtGw0sfD2ZmvQBj+kM/z5EIBBwt/p4GlVSl2xzMG2ZejMlrdXB6XHbpVo31gQcyoCHxwatPX4Rs5F9Pmq6Vq+2Sk65Q4cXpxrv25sbGUWEOvPNnIi7BRBd/I9urxAkNZnOK3eRqUZg17KcEmBEGvoZ6YDlyxlewMTAwcp5h+flJyfmykfFSxw36GSob/OaQRpAZmdpM9OvQttRMi8hycBwInU0OAVH4AdrV9fgN6hLzl0lfKoHUNgpv3tpKRYT5hUZlbtdOlwRC5GPEZLYT3eFcVdu3pu9RqYFybav50MOW8j2qazWrr0r2GbEQl6XpnHjoxLDNOhMpD9ENYvso/CS7NIRiOSi9LV/47Slq9xMF1sW8LfJOSU8dhC3Wqb9/J+0BeJlf40I9apKqEpbdNtxfknpsNd0ensZbs3+1auJAc40aTT3qMjAQjKwAoOB0uGXluMOPT9bmj1NyP8lq67SNJIcHOHS+WmEoO2yx+0eszLi2JENw6G9BE7DHWeNRwDBklXPlhB0uNsz9OsOqA+yP1410jIAWoBDN1OX7Q1qsccAh/m9BLJPJEglJ5+CTuUvHtn5goc1qKYbh2C6J2YHOMYDKuDSI7FovCDlci5afeGlhng9/GKpZs5c5YoXbVdYFwca3vxX+kABe0vh0P6lncwNheFITXAkOrrNUu3D8MMfaPUoN/Tb+Jbci6inwwiIWzvZAoHOADE3luG+XjrrWO0T3+nygEnXtoSyPeYwjJX4DAZWjoxBPdez6PO61DtWIiNPxk09Pnq9pytviuG0Nn8jXkj+R5TbeOB6ktJChYcbyKie8ZCNnvGe9q1AcAwVrX0SwYGMXJqp2tIQCimowOW3lyUcGqsM9lLs/RtDj5dQn2yFtFNzhw84ZVmyVPPQ5painqLf9r1eda1XIFDoWLppnJiE6Ad6ZfCyBJqHenYs4jSzecwsJGdHG7G13Co9PZAqG3H4IYOAmneIWG1a2PF1umB8YCuzNAz4H3ZICSh8n83AT0Dli+9IY35dPimGnE4/3ZAqPS8YSCisZptS0f/3b14nCtwgJMQvBK1A7NK1Tkg4zJ8GHqt01QEHgvhSyE2Haxb8LYys9qt4v/VRUvPz4YcAyEtQeA/gqQ8NQ0/A+T8SJZj/jv1XSjlWKSLuy8lF5oxlkX0XgSH4SCm06MbXeb9tusx4lB+u9YHh54ZQEjxjk7TDswqFRx+PW5owfYmOAhA1OmrSxmokT+0E3BIaBGxS/hr87Dya5YgqnFMf5l1HqFuaYbBnzzbfNxYvhWlHsWaAwYXy6LXgHcqjOnMWGfgcLSEzF99cOgZcHhtwdB1m4EDr8MjenDCEAZDrzGw1hcAAT8S7EIcYf+LRBmpM3rrEjYIIf3DhTzDu7AzgcCrh4uyFcwSgZNG/Pf4QKG7ITeUQ/psVZPFbq7w1DZ0W7loY3pgItmZ0Xb7bdZjbO2+s9gHh54ZQM/PGU4Npx2YVaLDEXb+scmQE5R0G4N2XB+ErltfZ435W4uIqqRxFhMdhDI3S0vOeAfnQBe4Ht88GHDcBsSQeGfR0E3YsvQCnvjP6bFPU+xiIOjqPxZBy63ZUXTczm0qGbfz/koU06Owk3EBg0XKbJaWtP2HShHnsdjOd3rlmdzoHOCq/fRMSAdKzUZQ2plaQhTGuhtxIzHz9kpHtaontuAqccyRlllPoDsUTh+gAOGXoAVmfQDBqSFDT00FvHvDPiluYPj3+8e6M4Hnry4YemnOEAaVxIToPSWkT1dsFT85lbjJa7uVd/zy2qKlZ+dMz/OP3/70cW7AoX7xIj3G1pGbgEMppgOliJ6bM11vnJPurFb/IUEs2YgeHkeAGLF/8Bk561hmRfGTgL8E53nwvD+znsG55DlDj0yGO+rc1ap9e3UeQPvMDHRWyD2aLTEoXQ6ULD010weHnkBHgMPDkxCLRSEJ1GdGTonTOI+s1H9ZyBc4gLEHg4iTvaqLd0Nh2GInA5JDsoxIjnUAoFQ6otT/yKQNmwmEjKvz8qa3JQYFH9DwhVnDoeyUBun2K02R4fyxSc11ko/2Kx20zIXkgCVFvH6R7ptwqeo9plYxWJkbnY7gqucWui+Og3bKdksw9+erlm4bMqxXEYVhoqhUhu+kBL14YDiQVfoBGH4+YninBN/bbl278Tm05+U5y5OHtp9p4ClmlZ8gXTw8EfaUhe1WaZ4bcEDi3LNjcKgSOwe/U9ODAdGX31zMHzjAIhEh2BAY9iZnBgxmTre/k/8N+qUkLygxYRrNIeN70NCp3QDB8uxvCxEdHJBlhS956rGCBmJ23j8REiTWdu/s5Wv5AAeO2rxOv3HgoOiedGTzAEF49r8zOOSvYwEQsF9Avk9sV0J6yAID0Aj0aXVNrysNoZfANidsSaC462Wmb1V3gAOc8Q45cEDbmZc8ySGhWURnJ0wfHFoRs1vOwxoviOt075hlyYFRvgXjYzAgf8PbS5Ac8gcO6BOIx7VIAOKqFnkg29Eo6xryjiIVHGJI5m05oXwMcHjdAwfwCgNEhqUodDVnx20fHJR4XVuurzPT3jvu9vozFHAqTaDDWXIAOPSAU9B2aA4mR2wLAOZzM8jbudGrUiWCxgDwJAm9BppdAZAtGHp5NiATxz1rGt0JHcEPry1JYh+VEJQWKJWHUGJZcd94X3LofhHSWfhtCg5uewrg8BZbt+VLoZYeAIhUtBrH9PupgBP7Agiyfsz4qdkxOWfpf6dDWrUAht61KE3TJus/wOHcQkSHSxuXYkoP1T1cXbJ0fx8cekP0ji9epN+MG7rS7fM3OjM1INC5WFO+ttC9sSOzGHc75+r1mKbDmP5nUvJ4ABh49nMgqTRCmQUaOIeITsjTIA5V+dQ1KG15t2LeEqwflR5KIwWFhFYSUbuvkOwBjSw66cEJ0TmgAxud6o4b52DnMBDRy/M5DhDKQWHrNB1Y+u0EzIGb/QVELE62KhOG3wgSuIb8Ho9NGZq/zGC1Ogi7tQQ4vDgndg5KE5T+ckLPw5YERmCc3LcHxsd2aJ6L3Qo0HODw6CQSorbehgL6o3OvLUb03Gx+wQH6hnLV0NlxiTkpEaM3DnydHduVoBeUb5AgHrxkgYo8nHkNj4bt2WdmYGEr7urt6IJcHE9O942gul/n4FyEn562bN0mDC1AkD7GLABDnqemdifpy3YQeqeeYUVkvU7FakiIrQAfEjWEAh18Zs+aDXGPnk/fD4DBoLl3zNCgA4i87fbAM/WJaYBDYoKuNEnTAxPMs7N98+meAYcXnHWbPwjSxyI9ICw9UsDnaw2NEPbIdHXXqMRkUGDg9XIaHJxxk0pToBMDg55P3Y/rGCBYYsB0+kIF4Jov+iFC1u9ggu8M6bTNPo2Unw4XI3q173jVGwpJzL6vczyH9o5XYHB0/n3jllY2CZe2UzP6br8HEgOA4fNLSWpPDkmGcfWb4JnPbe1i8OsMyHRw//ke/zhjK1gHhfhiRHTbUEDnV0OKXcj73W7jXrx/zojtApTaoJWCg9LKpx9iaMAgbC/q9V19Izc6BxDwnyuWjpebI0Fpx6JsMHgh4uxGSAX/XRF+p74LYEAi2C/WDP2wETm5E2276BIw2EXCEMcrBQodCJn0K4oPy4lyQF+uIcp09yas2Qqd4Uh2etQFKPbAUkFCJQjQBImBkfVqK+/vtXtzBQ7fVCL6YQY4aKf64IAQ9t9Weh8cViMEagnpaClw27gAhs7BAXqEwwO2ST/hDwbQbgP9dAlStHS8FNB7S4YtMnuN+dP1/aoS08lhMRhjkPQkqMZ/dw6T0EitDw49g46TgaUTg83LCu5UT5wWxo846hEclDDz9pKlJNfXWUDOmphenDV0sCD2HepHgTb7P0gB+sN5BskC9AeW7hw1vH33ixFDV5dEitBn9RmVIhrgivfxIMH9hg6XAl5/I8zaer0uNO0hj02l6b9WIjpWxg6PgKu0MVleKFCi/FE55CjgaYDJ0/9cSQ7VOKLbh7MT6SpjMzhwGnVDf5s3nOkIzNErnYq6Qr+ArcpHJ0O25tPBrAOfB3XK4tFvv9DA0l1jIX1dsWx6fn7N0ukRt43nwCT9jP7HdxJwkOXI4aKlx6dCGq4a3ursNZraOKZX5w1dXewMHO4YykcksXZ8nytwQEbq+8fhiSgzJQ8Cd9x0Dtpo5HKcMrQa9Y6lJMyhscNyftXQnSOh27ZNlrB08JUAAA+OSURBVBA6eNuBA2evKkR090hAw4FloMGuA1y9y1UBCCjkEBlK35cufTBKjhHV2nKwma/WxHOzVwLBAMiWTMw5PRBqTyUHbZvyEYOiA8ZHJoPc7dakgSJX4IBOfmk2dLNatjjIjM7JXiO6e9TQWNA7cR3gEfneIpZOYsMAJgbDpgdvW3C4YOj+sYBmwoiBATTTHwBiwkWT0iVK+t2t/ktdkNgmolsGQ/pwyWTmxkgzYDf8R/tHWBkpAXYVHLLaqrR9Y74PDj0jboPJYP766Qo6eOOAyeroG8uGQ6qDObqBSVvVYb2OIC4R/XEaWa4sb8V2wsA+Hfj+AsypxYlKAKF5mxpGTTiPgLFnR6HglLyROiCwlMiiY/ocvnWwiOCzNQri7gdftPmzVUNHW7i3o30NqYEB2VCpkl8LW+XDnEkOdVowlq65AEOWZkZG5278WfrrPIyhugscZODKjG6RtzKM6ZeXlgGy/968VauMq23Dfx3Mck6CyB5yOoE5E3OSXGWArBJgNBsiTHtA13JODN3ubKapgoL/7cY5OMAVLN0zWqOpMNnu1LZlffe7OIf6oP8RO1KWFAmfaFtQoo1M16KhI8WAghzZd7Sie67A4aLLlnz7UK3Jyg2dqwPG1zhjXX3PmKFFKxr2VkTa6/NgWHhULpqI3l+y9NNB3V6DHmCjLoAZ19t2a2prMaIjpZB9BuA4Bf0C3t+2TW6pMWsiDvd/XanZatAfNA3apqQ1BQwA2snBGmcHX7EApg6+v4eOTJA2l2zMWcjZ3gN0dL90O7mthYjOjAeNpVhbOu5hO3ajHvkCB9cZL8+JlaDfuU0DRhmAB46hL1e7x89CZrI6DVQR3TikY8jD4Znz+m3SY53VUOKc/gez/6Bs6JX5kGAPAYepTYHB0VAAap2WbUx/mYOBVaLF1+9qqd/T/37JA64Q0fEBQ09MhVSuWQ4z12k9doPp/XcCLJGt60DRW0K5ycRvB9rIv4KltxfD9uDa46Cg9MklOIzVIrq20Lyl2QocMPAgPgdRd/gJILzbWwsh3TkiWaxEt7BRWvAZN+sYJuI/Hgzo/SXjsl4nikft/Hal6B8uUr2+Tms2pncXQrpxAIl7s5cWrc7LoBKJ56DbzYDZcTXqjlRyNq7Tb8aQOBhLp9ZtYwAsIYpYSJNhd9S9Xf/txLVcgkMU1+n0SM2tEWVJocgv+/PJuhIMAbH5Gyc97PWMhkxR+EHcLlUjOjtm6OiAelMKw6LurQYfzjPjYrYroK0RXVmw9KsRQxeqlqxbRmzXg5IlCKzL4zpdqEZ0xxACx6BeWkf5vtavURc3+/p1x3PQQxwfsPTgWI1GkffCrd33nO7rEgvzsxXZEgYf+HVNtwc6LNAXbvC1Hs6xuhXQyCU4wEoPs++VsPhzSwjteAWHpkFVjOiO4YDCWLJEb4WAl3svbBeWbUR/mg4JuyccjwK+C7r02cSYKd2OqwqGHpgIaTzQjNewAL247aAksB7ln9PnjAeG7h0P6CoWw8UPQWnbqEuLukMK0mXGNRciurFs6bmZgNYi0YVcLi238jx0DdiVOTlQoyuKrXe40DaWOhl8Q/rQJR/eyrd69d5cggMUk7OmTscGxCDKZ16fgfU8mBa/V+cCFqN3uzPBmFjrmnpM/14J6NQQxHWxWWgwYwYo+MCGdugPz0C5em3R0JPTIcGMGd/YDbNwgNmCjejx6ZAOuAhT6Z0h1IsHVKoN3DYAR0E8Y3nJVIjo50OGMIMj5D3Xew9iVUb1mP48U3MGT81Z0pQvfPoC1E4MhTRphLa7zSPd8P58gsNFhKpfZwtIGfjNIqMOQGUClPhdXzL0r2VY9+20l2Gy3gfzL9qIvlg1dHYs4AHN4rZn0JSunzKpgoPWF+d5gBUjumkw5FwV1T2w+MQSALEPzs2H9KOyZNdCnaQ+QkudbZvrmizxtE2c27Ngecv0gfGAvUuR91NAIqHb5Q4W1aGg7mF9nf6xaHh506rO/nkcIzP7n2awpOgO3dTl0qOT53MLDmAuaKHFjXkjOPhMm8xyEf100NDHy2ZH97Ex22JWnApi+mQ1YkOk60qId5kYNLG47QV+9eunA0mXSCh1MH6/aOjO0ZA+WbFsAg3m3/X1uzOWgik3wPT0MHaHmmdf0BR1VJDwB1tSdwUUWW5AejpaMrxLg76bCuMd29kAOEC5Wonq9MEl680TQ4aXnVqvLODVc6gXHPq+WOsdU/tOBv9m9+QWHDBAIF7Df+L7JVGepZmyMejAxG5gIoQczJPPzRta4ICqnW//gdg6OKFkxNKhGsf0TcXSK/OGzbURJESkmWQZgXp0Moj0HgaSYkQ3DBhOGT8VRg1vyM06fCevY8BBkToaWPrDpOGBrXUTiaZ9u9Af6T5hRWfB0pGSZRsUOMdBsYoZe7vSBPoEz86amF6eM3TzoPSB9jnqoGCmYMHnsAQqRnSgaOnpGcPBgXYdeLtoGzS/4ODMqc+vWjqJWaLNVhUPusasLdtu2Jd/aNLQp6uGk7l0OqiQ2wHWc0M1S68thPTIpUzMtw5Lajq2V2CbBdFxgDl1cKD0j/1rCmJ8j9P4/2zE0DtLhmBYJIAEYGo2h+60ztu9T0R1GXhwXHrrUubyW4fhPi6Dzx9oeuy3C8egvbYPpQ8uAJjDJcueto9OGXpzwdBIYCW5Tr2zHBqgDXYXPl4xnGfi+gGJEcnfafS50F7pr/wg9Yvo1JBh71UFp+3Sq9eeyy04oCPAGMj69DzSqpcsK+244731sf5PMykYE1LEDWVLd40YenE2oG8rGIwR2XrMvg6YNW0csbZ9pGbp/aWQZ9A7xzA7WWZsVjRyLg0BBBkAMij8bzcxZmom08GDOsGc+eGJgIaCiCDWd8NMxiBRl+3Oci2iB8axPSh5OrVdaAOO/Tb7x3ofn2sMWjH9hk4GfQGgAF3vGjX0+GSV3l8KGCyw22HrEUXrUiIz17K19HUlpOdmanR61NAxDgKky5ekLkrb7PpFnHEb4erDnMUb7QSocg0OChDTBnEesD+PdWYyWzGzutlbmTNhFhnMIh5DtDR0sAQmw8AP6ZZL/vz43Vy29IMBw7YSB9hxR11+m5cNAAn5aSyEhEGzZlPUJ10nmEG/tQhrR6ew423GvZUWWjGVL0UgO9a5BUSnarZU1TYpADT+e32i16Qfkj7AvSpVQFcDBSFcxGGj8oOBkH48aOmWYdcngyFbZB4qIcKV2z71SgWCNH35Gx4/wL39F8MBLVk4j+0fRaT2cf7BAQNovU7/tyoMowzpM0iaSRKAcDMdz2RipQiwEMCQwcsM5RhPn1MmYyDyGN+/rt9EqT+/TnwMY6OClYhNwzUOSxazkxh8Izbxj/iO1q5qE4HYGogPgcF1DQY2G04JDX0A0Lan6aG0UpooqOv9/nUFXrkmoIxzCiYo9Tn9jj6v79Xv4DrXrxjR9UUsJ+B9CUO17qS3DuTdKHMPDko0LAGgA5BdAmFSZRC/9JkoYZTsAaz3CjMl9/jPpa/pt/RZlHoOJWwGGIA45X1Etw0b+vsiYiPANwLr++6QFJSurUosd+DLAYUs6I51+8GSSFUyaFPt9kByA03cgE2f9+mmxz5ds2jvX8cz6XtwHfW7rmzp3UXDCtdWbcz7+X0DDkB+bCc+MxOwKKrMlC6ZOTDbu58ykz/DMEM1iZ+JhJF+TphN3odj/Z5+xz+Ha1hfY3sSOybYVx+uRbxFyYzYI8CAuuoyAyCBIDKDVUtPTstOAbJnSTs30kPpp3RimnjA4Z/POtbntb8a9Pf1TBmK4MZzyMJeNvTCXEgR7F32ocSgoLdvwEEbvBbH9NKcoevZzmCjBOEzE0BAB69/rPfoNWVgnYVQZp3T6/41vEPegyWEbE8+NRPQF5WIqjF8LvbAbmGXlyAsRazXqRLHdH4V1pWGjrMbuEhKDXq4JZjSyacv7vF/uIb70vfos/41Pdf4Tuo5eZfQH1GlX5m3bFqtPLNfy30HDmDUlajO+90wkMqawcAs/k+ZShkxfc2/rtf03IYZrKGJ975RiDiAyO+nQjbcgq+FbpvJDNwbS4lWg8iXItAuWIh+smrokUlDh4riyAW6gVZKP6Ub6Jj18+/3r+vzWmo/4L9/rP/5nDPnhm8L7CpWo+7YBWpFz706v//AwW1xwvz3/WVLJ2EQAzE3I4iKz3TKWDoL+TNT1rXGOU8hCYaU56EsEwvJ60oh/W4ypK8qEdssSDCWfGvGAdBQWCJWxJcVSw9NhHSwGNIV8PR0AzVNX9BTae/T1h/kON/ql9C+WeKQgLuWd54+WjEsMaB+ezUAu/k7+w4c/M7ALDYdWjozVuVtzlaMpeeZwVL6iFbXcL5xf5ppC5YOFwP6/VRA46ElhEXfrwyJdsNuZLSGUPsBHSqF9D0AZ5pmCg6e5KWSRta96XONvvB0SbjnewVLZ8dqNBdKSH2fP/b78b4GB3hvgjmxE/DRckC3DAaJ4VKGJNFgMG/ZoUyIa3zdicc4D2kEW5H4ISsz9By3Dgb0t/mA5ozl2VP2z/fvTKVbn+gHKC4B1n+dk76AnwVsGYSGMIgSGgtt5Rg0x3+WKhxwaJ/4ZdJ30DOJefbtQ/BJCQjesfg+lj/7HRD89u9vcHCKOAxQmD0vRxG9v2zo/glDp4YtHXXOUew56O2b81YjBj+LwLLDINuPYFLZX0c2qWMDMJ029OuxkJ6fDalQMVSBknEdbr/5Xjr4TLaVY0hz4pNSp28rlp6dQVZvQ7cMCT0R70JoLWDByw9nQyHHrj/YzNwBCOcpiejIgOV+fXg8ZIcxJFLWDF1bqeN+ubcPDg2AEHPreH2dFVLIu4kMSI9OYnDLIIcl5OESwrcZTkWPeAZwymErvbKhU0NI6oI1tKWnpy37GhQqks0ba2wBIZUStOzPVk2DDbM3e31KfyBJL3QTFyqWfSuemrb00KSYUJ8ckqhS1xUhYSBbFfwmpH9wDgrn24YtnRlFPE7DznTFqmXbi4bCl43k+n3Q1AduTPTBIbWNp5p1MA8GNKIFTQYRJ939eCWid5csvb4Y0blFOFZZemMxoneWLP17Bbb8EY0FETMzwp0zA3aJ/0NW5/fKORH562wEhlgMSxaeoDF9tRbRv5ctvbOIfrB0bsFwv6B/0E8fr1juN7h+VyONfN3fiei03/vgkAIHEE7CqmFmF52EMKccC2gAOJJfYxZyOgzczx3gZsFOO6N/X4sZXOnYkChEqtB+6axPIJFIn/bp3ILOqbHQB4cUQfqM0xnj9OmUfzr1waGbwaExU6oE0zxj6swpJa751/1jfX43yq1+R+rZB5fuB5f/B/wlbEQPxMCPAAAAAElFTkSuQmCC;" vertex="1" parent="1">
          <mxGeometry x="562.996666666667" y="200.99666666666673" width="263" height="243" as="geometry" />
        </mxCell>
        <mxCell id="i9wXU3DIwBck66XUtcdW-8" value="&lt;b style=&quot;font-size: 70px;&quot;&gt;&lt;font face=&quot;Lucida Console&quot; style=&quot;font-size: 70px;&quot;&gt;e-&lt;/font&gt;&lt;font face=&quot;Lucida Console&quot; style=&quot;font-size: 70px;&quot;&gt;Commerce App&lt;/font&gt;&lt;/b&gt;" style="text;html=1;align=center;verticalAlign=middle;resizable=0;points=[];autosize=1;strokeColor=none;fillColor=none;" vertex="1" parent="1">
          <mxGeometry x="249" y="444" width="627" height="100" as="geometry" />
        </mxCell>
      </root>
    </mxGraphModel>
  </diagram>
</mxfile>
